<?xml version="1.0" encoding="utf-8"?>
<!-- Generator: Adobe Adobe Illustrator 24.2.0, SVG Export Plug-In . SVG Version: 6.00 Build 0)  -->
<svg version="1.1" id="Layer_2" xmlns="http://www.w3.org/2000/svg" xmlns:xlink="http://www.w3.org/1999/xlink" x="0px" y="0px"
	 width="2048px" height="2732px" viewBox="0 0 2048 2732" style="enable-background:new 0 0 2048 2732;" xml:space="preserve">
<style type="text/css">
	.st0{fill:#427C07;stroke:#000000;stroke-miterlimit:10;}
	.st1{fill:#C9A678;}
	.st2{fill:#B6A7AE;}
	.st3{fill:#10F360;}
	.st4{fill:#436123;}
	.st5{fill:#A4CDCB;}
	.st6{fill:#3C8F4B;}
	.st7{fill:#6841C9;}
	.st8{fill:#425E8D;}
	.st9{fill:#2A9FD3;}
	.st10{fill:#A76564;}
	.st11{fill:#A93743;}
	.st12{fill:#FCB082;}
	.st13{fill:#CA917E;}
	.st14{fill:#A195C0;}
	.st15{fill:#94C769;}
	.st16{fill:#5D1C0C;}
	.st17{fill:#31EA69;}
	.st18{fill:#F9675C;}
	.st19{fill:#115635;}
	.st20{fill:#CE8A4F;}
	.st21{fill:#4ADD60;}
	.st22{fill:#16B36F;}
	.st23{fill:#A72735;}
	.st24{fill:#3CC7E0;}
	.st25{fill:#1A1596;}
	.st26{fill:#AF9AA6;}
	.st27{fill:#255F0C;}
	.st28{display:none;fill:#FFFFFF;}
</style>
<g id="Layer_3">
	<rect y="2" class="st0" width="2048" height="2732"/>
</g>
<g>
	<path class="st1" d="M1402.6,2732c-1.59-6.21-2.58-12.4-2.86-18.62c-0.9-19.92-1.66-39.84-2.26-59.77
		c-0.78-25.92-1.27-51.86-2.04-77.78c-0.51-17.27-1.36-34.53-1.9-51.79c-0.74-23.93-1.29-47.86-2.01-71.79
		c-0.58-19.27-1.32-38.53-1.92-57.79c-0.7-22.59-1.28-45.19-2.01-67.79c-0.56-17.27-1.37-34.53-1.9-51.79
		c-0.75-24.26-1.29-48.53-2.02-72.79c-0.56-18.6-1.33-37.19-1.92-55.79c-0.71-22.59-1.3-45.19-2-67.79
		c-0.61-19.93-1.21-39.86-1.97-59.79c-0.51-13.26-1.3-26.51-2.02-40.66c4.21-1.92,8.15-4.27,12.39-5.57
		c34.43-10.54,69.46-18.1,105.39-20.65c35.92-2.55,71.37,0.24,106.85,7.11c65.82,12.74,123.55,41.62,173.95,86.13
		c56.11,49.55,93.21,111.5,113.93,183.82c7.88,27.48,13.13,55.54,14.27,84.23c0.72,17.93,2.12,35.95,1.15,53.81
		c-2.57,47.01-11.76,92.76-28,136.99c-21.31,58.03-52.33,110.07-92.86,156.11c-23.38,26.55-49.19,50.53-78.47,71.42
		C1603.84,2732,1503.68,2732,1402.6,2732z"/>
	<path class="st1" d="M923.58,2732c-2.66-1.31-4.21-3.12-6.16-3.86c-34.92-13.15-66.81-31.61-95.81-55.43
		c-31.47-25.85-58.8-55.66-82.44-88.97c-47.54-67-78.49-141.6-97.15-221.75c-6.55-28.14-10.98-56.63-14.24-85.37
		c-4.17-36.79-5.09-73.69-3.01-110.55c2.76-48.85,10.67-96.93,25-143.8c13.38-43.77,31.43-85.29,56.55-123.43
		c26.72-40.56,59.32-75.13,100.68-100.45c35.54-21.75,73.76-34.41,115.45-37.17c17.79-1.18,35.05,0.82,52.5,2.53
		c2.81,0.28,5.53,1.55,8.61,2.45c0.76,17.66,1.44,34.89,2.24,52.11c1.04,22.55,2.22,45.09,3.25,67.64c0.35,7.65,0.4,15.3,0.64,22.96
		c0.65,20.93,1.2,41.87,2.03,62.79c1.06,26.55,2.42,53.08,3.52,79.62c0.87,20.92,1.43,41.85,2.37,62.76
		c0.92,20.55,2.2,41.09,3.21,61.64c0.37,7.64,0.39,15.3,0.63,22.96c0.65,20.6,1.22,41.2,2.04,61.79
		c1.07,26.54,2.42,53.07,3.53,79.62c0.87,20.92,1.43,41.85,2.37,62.77c0.92,20.55,2.18,41.09,3.18,61.64
		c0.37,7.64,0.41,15.3,0.66,22.95c0.66,20.6,1.18,41.2,2.07,61.79c0.86,19.89,2.19,39.76,3.18,59.64c0.4,7.98,0.41,15.97,0.66,23.95
		c0.65,20.6,1.05,41.21,2.12,61.78c0.56,10.83,2.36,21.58,3.45,32.38c0.12,1.15-0.76,2.4-1.55,4.3
		C990.02,2732,957.26,2732,923.58,2732z"/>
</g>
<g id="Image_Tracing">
	<path class="st1" d="M715.49,529.54c9.84-21.31,20.74-41.26,34.52-59.26c27.29-35.65,58.28-67.6,96.54-91.84
		c4.44-2.82,8.58-6.26,12.39-9.91c18.54-17.73,35.65-37.21,55.58-53.19c71.04-56.96,148.64-100.91,240.17-115.87
		c28.08-4.59,56.26-6.49,84.56-5.02c54.65,2.84,106.58,17.13,154.78,42.63c53.91,28.53,99.52,67.73,138.11,115.06
		c53.59,65.73,90.2,140.32,115.74,220.74c14.54,45.78,24.81,92.58,31.59,140.06c8.84,61.8,11.07,124.04,8.34,186.37
		c-6.69,152.67-43.3,297.8-110.44,435.2c-17.38,35.58-33.18,71.95-50.92,107.34c-35.66,71.16-80.8,135.57-139.52,189.84
		c-35.22,32.55-74.19,59.61-117.72,80.04c-23.43,11-48.01,18.06-73.42,21.89c-27.3,4.12-54.76,7.25-82.22,10.15
		c-26.22,2.77-51.75-2.57-77.02-8.7c-28.6-6.94-55.81-17.68-81.96-31.17c-3.83-1.98-7.79-3.8-11.84-5.28
		c-65.59-23.98-120.37-63.73-167.29-114.83c-38.85-42.3-69.91-89.99-94.37-141.76c-28.13-59.51-48.64-121.7-61.24-186.39
		c-8.28-42.5-13.85-85.31-16.65-128.55c-2.63-40.64-2.74-81.29-0.78-121.86c2.77-57.21,10.7-113.86,22.28-170.01
		c5.04-24.42,8.19-49.22,13.14-73.65C654.11,681.31,679.09,603.9,715.49,529.54z"/>
</g>
<g>
	<path class="st2" d="M1667.69,1899.18c-7.57-0.38-14.21-0.87-20.86-1.16c-13.44-0.59-15.83,1.97-18.79,14.87
		c-12.18,53.2-24.74,106.3-37.18,159.44c-0.07,0.29-0.4,0.52-1.54,1.93c-15.02-3.59-30.67-7.34-47.02-11.26
		c-0.22-2.38-0.67-4.92-0.68-7.46c-0.04-82.64,0.04-165.29-0.14-247.93c-0.03-12.94-1.62-25.88-1.87-38.83
		c-0.88-45.63,14.69-84.71,50.19-113.75c39.91-32.64,84.69-38.45,131.87-16.9c43.88,20.05,65.75,56.01,72.39,102.81
		c5.02,35.36-2.82,67.69-22.17,97.08C1747.56,1874.98,1713.62,1896.65,1667.69,1899.18z M1751.66,1715.56
		c-11.61-21.77-29.17-34.65-54.08-37.66c-53.85-6.52-103.66,27.59-120.23,68.23c-8.1,19.86-8.35,39.34-0.3,59.13
		c1.6,3.94,2.77,8.16,3.41,12.36c2.13,14.07,3.92,28.19,5.94,42.99c3.28-1.09,5.8-1.78,8.21-2.76
		c16.65-6.78,33.21-13.76,49.93-20.35c4.55-1.79,9.52-2.56,14.33-3.67c11.64-2.69,23.7-4.19,34.86-8.2
		c25.56-9.18,46.36-24.91,58.98-49.59C1762.72,1756.47,1763.72,1736.53,1751.66,1715.56z"/>
	<path class="st2" d="M877.75,2574.55c37.04,17.16,73.42,33.97,111.06,51.37c-2.25,1.81-3.3,3.34-4.57,3.56
		c-10.12,1.71-20.12,4.32-30.61,2.71c-5.89-0.91-11.94-0.68-17.91-1.09c-14.38-0.98-28.24-3.66-41.23-10.5
		c-9.67-5.1-20.13-8.71-29.8-13.82c-22.91-12.11-36.46-32.16-46.61-55.32c-10.26-23.4-15.91-47.85-19.23-73.01
		c-1.58-12.01,1.1-22.42,10.16-30.87c4.13-3.85,7.83-8.22,12.27-11.65c2.93-2.27,6.82-3.28,11.62-5.47
		c4.57,42.87,5.2,84.29,7.66,126.7C852.57,2562.75,864.83,2568.48,877.75,2574.55z"/>
	<path class="st2" d="M901.01,2570.38c6.39-16.85,12.43-33.02,18.65-49.65c14.4-1.03,27.49,2.61,39.74,8.5
		c7.67,3.69,15.34,8.49,21.25,14.52c12.64,12.9,10.23,25.63-5.97,33.65c-16.51,8.17-34.2,11.01-52.47,7.79
		c-7.78-1.37-15.37-3.8-23.69-5.91C899.39,2575.95,900.03,2573.5,901.01,2570.38z"/>
	<path class="st2" d="M141.87,92.67c-2.86-3.73-5.83-7.93-8.79-12.13c0.71-0.46,1.43-0.92,2.14-1.38
		C137.39,83.5,139.57,87.85,141.87,92.67z"/>
</g>
<g>
	<path class="st3" d="M1143.59,1055.59c26.26-25.02,53.97-47.1,87.53-59.68c36.94-13.84,74.97-19.71,114.73-12.33
		c37.98,7.05,70.83,22.82,97.49,50.8c30.98,32.51,47.47,71.98,49.08,116.26c1.85,51.11-16.53,95.89-50.61,134.1
		c-31.01,34.76-69.21,59.18-111.73,77.22c-48.89,20.75-100.1,32.05-152.93,36.3c-103.46,8.33-203.26-7.06-299.35-46.37
		c-42.81-17.51-82.44-40.75-119.49-68.2c-31.14-23.07-56.44-51.73-75.4-85.69c-7.44-13.33-9.94-27.32-4.62-42.27
		c2.67-7.51,3.8-15.58,6.68-22.99c22.18-56.95,59.2-102.07,112.24-132.19c36.4-20.66,76.4-32.71,118.48-36.73
		c32.62-3.11,64.62-0.42,95.65,10.21c40.77,13.96,72.91,38.47,91.36,78.41c4.55,9.84,7.32,20.49,11.24,31.69
		C1124.41,1075.49,1133.63,1065.67,1143.59,1055.59z M918.55,1091.57c-19.68,2.3-38.51,7.6-56.33,16.29
		c-20.42,9.96-38.08,23.37-50.49,42.66c-3.3,5.13-5.36,11.44-6.47,17.48c-1.37,7.47,3.38,12.75,11,13.8
		c2.95,0.4,5.98,0.24,8.98,0.22c27.31-0.19,54.61-0.7,81.92-0.55c79.94,0.45,159.88,1.2,239.82,1.76
		c62.95,0.44,125.91,0.82,188.86,1.12c9.28,0.04,18.92-0.36,26.51-6.25c11.42-8.87,20.5-19.98,26.6-33.25
		c10.53-22.9,6.34-45.58-11.82-63.12c-15.45-14.92-34.75-22.17-55.37-25.64c-58.98-9.93-114.78,0.52-167.05,28.85
		c-28.97,15.7-53.4,36.25-61.23,71.58c-13.8-18.67-30.7-32.42-50.31-42.88C1004.63,1093.09,963.48,1086.63,918.55,1091.57z"/>
	<path class="st4" d="M919.44,1091.44c44.05-4.81,85.19,1.65,123.75,22.21c19.61,10.46,36.51,24.2,50.31,42.88
		c7.83-35.33,32.26-55.88,61.23-71.58c52.27-28.33,108.07-38.78,167.05-28.85c20.62,3.47,39.92,10.72,55.37,25.64
		c18.16,17.54,22.35,40.22,11.82,63.12c-6.1,13.27-15.18,24.38-26.6,33.25c-7.58,5.89-17.23,6.3-26.51,6.25
		c-62.95-0.3-125.91-0.68-188.86-1.12c-79.94-0.56-159.88-1.31-239.82-1.76c-27.3-0.15-54.61,0.36-81.92,0.55
		c-3,0.02-6.03,0.18-8.98-0.22c-7.63-1.04-12.37-6.33-11-13.8c1.11-6.05,3.17-12.35,6.47-17.48c12.4-19.29,30.07-32.7,50.49-42.66
		C880.04,1099.17,898.87,1093.87,919.44,1091.44z"/>
</g>
<g>
	<path class="st5" d="M1498.94,2734c-4.1-1.35-7.17-3.05-10.45-4.01c-49.64-14.54-91.94-40.41-123.92-81.54
		c-55.75-71.69-57.01-167.47-3.1-242.68c39.05-54.49,92.82-86.88,157.55-101.57c43.57-9.88,87.35-9.7,130.58,1.93
		c54.39,14.63,100.3,42.74,133.8,88.86c52.06,71.65,51.06,165.03-2.5,238.69c-35.46,48.76-83.55,79.34-140.94,96.1
		c-3.19,0.93-6.41,1.8-9.78,3.46C1586.62,2734,1543.25,2734,1498.94,2734z M1420.95,2506.4c2.85,0.27,5.77,1.03,8.55,0.69
		c5.52-0.68,10.94-2.25,16.46-2.94c22.47-2.83,44.96-5.5,67.46-8.14c3.25-0.38,6.46-1.28,5.95-4.91c-0.2-1.41-3.9-2.33-6.73-4.47
		c-22.56-20.47-45.11-40.94-68.38-62.05c-16.47,24.49-25.42,50.1-26.92,78.28C1417.28,2503.8,1418.7,2504.82,1420.95,2506.4z
		 M1462.05,2414.09c2.92,3.88,5.44,8.16,8.85,11.55c6.35,6.31,13.31,12,19.84,18.13c13.57,12.75,27.01,25.62,40.52,38.43
		c0.96,0.92,1.87,2.24,3.02,2.54c2.25,0.58,4.65,0.58,8.19,0.93c-1.2-3.78-1.88-5.91-2.58-9.88c0-37.66,0-75.32,0-113.6
		c-32.76,6.86-59.68,21.82-82.27,45.82C1459.36,2409.91,1460.67,2411.32,1462.05,2414.09z M1556.76,2664.03
		c0.2,2.52,0.4,5.04,0.61,7.75c45.36,4.7,84.64-7.14,119.67-36.52c-39.03-35.27-77.07-69.64-115.38-105.53
		c-2.24-6.31-2.46-12.6-0.44-19c1.36,0.27,2.16,0.19,2.58,0.55c17.43,15.22,34.91,30.38,52.19,45.78
		c15.07,13.42,29.88,27.13,44.84,40.67c5.39,4.88,10.73,9.84,16.44,14.33c2.43,1.91,5.71,2.74,8.74,5.34
		c1.27,1.36,2.54,2.71,3.83,4.08c36.73-36.56,47.95-103.11,32.84-141.92c-51.46,7.47-103.49,12.27-156.38,22.42
		c-3.86,0.21-6.5-0.82-6.23-5.48c0.23-3.98,2.05-6,6.06-6.44c11.48-1.27,22.94-2.63,34.4-4.08c11.46-1.45,22.9-2.97,34.34-4.59
		c16.98-2.4,33.95-4.81,50.9-7.43c10.06-1.56,20.04-3.53,31.53-5.68c5.18-2.43,1.25-5.77,0.3-8.04
		c-18.98-45.38-51.53-76.55-98.13-92.77c-18.39-6.4-37.26-8.96-57.01-7.25c-0.44,2.9-0.83,5.45-1.96,9.1
		c-1.23,5.28-6.81,7.8-6.77,14.6c0.35,61.46,0.77,122.92-1.53,184.38c-1.02,27.24-0.19,54.55-0.18,81.82c0,2.66-0.5,5.51,0.3,7.92
		C1552.89,2659.8,1555.24,2660.97,1556.76,2664.03z M1539.6,2525.26c0-3.66,0.1-7.33-0.02-10.99c-0.14-4.51-2.54-6.69-7.09-6.22
		c-2.32,0.24-4.62,0.59-6.92,0.99c-26.54,4.66-53.06,9.41-79.61,13.98c-9.11,1.56-18.3,2.66-27.37,3.96
		c1.02,63.2,58.03,129.98,120.37,140.08C1539.18,2620.34,1539.39,2573.77,1539.6,2525.26z"/>
	<path class="st5" d="M689.2,1649.13c-38.77-8.44-76.77-16.98-114.78-25.49c-0.57-0.13-1.24,0.22-2.84,0.53
		c-1.03,3.26-2.31,6.96-3.38,10.72c-53.41,188-106.83,376-160.04,564.06c-2.09,7.38-5.36,11.52-12.96,14.1
		c-104.38,35.31-208.63,70.99-312.91,106.56c-3.08,1.05-6.24,1.86-10.98,3.25c4.22-103.37,8.4-205.64,12.62-308.87
		c-11.59,1.06-22.1,2.03-32.62,2.99c-6.3,0.58-12.6,1.41-18.91,1.65c-9.07,0.34-12.75-2.7-14.32-11.73
		c-3.84-22.05-1.14-43.79,3.37-65.42c1.7-8.12,6.63-12.14,14.94-13.72c33.04-6.26,65.97-13.06,98.96-19.59
		c10.58-2.1,15.62,1.89,16.23,12.98c0.25,4.65-0.13,9.33-0.24,13.99c-1.18,51.31-2.36,102.62-3.55,153.93
		c-1.22,52.64-2.46,105.29-3.68,157.93c-0.08,3.3-0.01,6.61-0.01,10.79c2.92-1.1,5.38-1.83,7.65-2.92
		c61.56-29.52,123.07-59.14,184.7-88.5c5.62-2.68,8.57-6.06,10.28-12.16c57.77-205.11,115.75-410.17,173.7-615.23
		c0.27-0.96,0.62-1.9,0.92-2.85c3.18-10.12,6.41-12.14,17.03-9.9c12.71,2.67,25.36,5.63,38.02,8.48
		c37.68,8.49,75.26,17.51,113.11,25.17c11.97,2.42,17.92,9.06,21.31,19.35c0.96,2.9,0.53,6.56-0.17,9.66
		c-3.91,17.2-8.21,34.31-12.13,51.51C697.4,1645.32,694.57,1647.91,689.2,1649.13z"/>
	<path class="st6" d="M1552.45,2270.84c1.65,3.06,0.88,4.83-2.13,4.85c-0.85,0.01-2.37-1.4-2.44-2.25
		C1547.64,2270.56,1549.13,2269.37,1552.45,2270.84z"/>
	<path class="st6" d="M1561.79,2530.49c-0.4,4.64-1.38,8.52-1.42,12.41c-0.33,36.3-0.47,72.6-0.8,108.89
		c-0.03,3.22-1.01,6.43-2.17,10.14c-2.18-0.95-4.53-2.12-5.12-3.89c-0.8-2.4-0.3-5.26-0.3-7.92c0-27.28-0.84-54.59,0.18-81.82
		c2.3-61.46,1.87-122.92,1.53-184.38c-0.04-6.79,5.54-9.32,7.14-15.15c0.29,33.06,0.2,66.67,0.12,100.29c-0.01,4.54,0,9.08,0,14.58
		c17.1-2.35,32.86-4.49,48.61-6.67c31.97-4.43,63.94-8.9,95.92-13.29c3.79-0.52,8.23-2.23,10.01,4.31
		c-9.72,2.45-19.71,4.43-29.76,5.98c-16.94,2.62-33.92,5.03-50.9,7.43c-11.43,1.62-22.88,3.14-34.34,4.59
		c-11.46,1.45-22.92,2.81-34.4,4.08c-4.01,0.44-5.83,2.46-6.06,6.44c-0.27,4.66,2.36,5.69,7.03,5.47c3.09,2.7,5.08,5.74,7.7,8.08
		c35.49,31.81,71.1,63.48,106.54,95.34c2.87,2.58,8.34,4.23,5.18,10.43c-3.54-1.01-6.82-1.84-9.25-3.75
		c-5.7-4.5-11.04-9.45-16.44-14.33c-14.96-13.54-29.77-27.25-44.84-40.67c-17.28-15.39-34.76-30.55-52.19-45.78
		c-0.42-0.36-1.22-0.28-2.58-0.55C1559.2,2517.13,1559.41,2523.42,1561.79,2530.49z"/>
	<path class="st6" d="M1462.01,2413.41c5.68-2.42,9.11,1.28,12.71,4.65c18.81,17.61,37.63,35.2,56.47,52.78
		c2.41,2.25,4.95,4.36,8.07,6.66c1.32,2.26,2,4.4,3.2,8.18c-3.54-0.36-5.94-0.35-8.19-0.93c-1.15-0.3-2.05-1.63-3.02-2.54
		c-13.5-12.81-26.95-25.69-40.52-38.43c-6.53-6.13-13.49-11.82-19.84-18.13C1467.49,2422.26,1464.97,2417.97,1462.01,2413.41z"/>
	<path class="st6" d="M1420.19,2506.1c-0.39-5.67,3.53-6.17,7.7-6.7c18.79-2.4,37.56-4.88,56.33-7.41
		c9.21-1.24,18.4-2.67,28.37-4.19c2.87,0.96,6.57,1.88,6.77,3.3c0.51,3.63-2.7,4.53-5.95,4.91c-22.49,2.64-44.99,5.31-67.46,8.14
		c-5.52,0.7-10.94,2.27-16.46,2.94C1426.72,2507.43,1423.8,2506.66,1420.19,2506.1z"/>
</g>
<g>
	<path class="st7" d="M1498.94,2734c-3.75-1.38-6.42-3.24-9.38-4.07c-44.89-12.67-84.42-34.47-116.25-68.97
		c-34.28-37.16-53.59-80.95-54.63-131.76c-0.96-47.3,14.05-89.87,42.36-127.53c38-50.55,88.98-81.63,149.92-96.37
		c68.33-16.53,134.47-9.86,196.99,23.05c48.29,25.42,84.54,62.79,103.65,114.48c24.78,67.05,13.86,130.05-26.72,187.81
		c-36.17,51.48-86.83,82.56-146.87,99.24c-3.21,0.89-6.43,1.73-9.82,3.36C1585.29,2734,1542.58,2734,1498.94,2734z M1664.96,2700.09
		c41.87-17.35,77.63-42.94,103.63-80.38c40.16-57.83,48.39-119.71,18.38-184.4c-20.47-44.13-55.25-74.71-98.91-94.98
		c-56.9-26.42-116.09-30.49-176.58-14.91c-52.16,13.43-96.65,39.83-130.3,82.35c-39.8,50.28-53.37,106.88-34.74,169.02
		c14.89,49.67,47.5,86.13,92.38,110.84C1511.36,2727.57,1586.69,2729.61,1664.96,2700.09z"/>
	<path class="st7" d="M258.35,2265.96c-55.54,20.94-110.33,41.68-165.18,62.27c-3.29,1.24-7.11,1.74-10.64,1.56
		c-9.47-0.49-12.56-3.62-12.32-13.13c0.5-19.98,1.4-39.96,2.23-59.93c1.12-26.63,2.37-53.26,3.49-79.89
		c2.04-48.27,4.04-96.54,6.01-144.81c0.17-4.25,0.02-8.52,0.02-13.54c-14.4,1.26-27.93,2.5-41.48,3.6
		c-3.29,0.27-6.82,0.81-9.89-0.05c-11.65-3.23-13.54-5.72-13.18-16.44c0.78-22.98,1.43-45.96,2.23-68.93
		c0.25-7.13,2.22-9.53,10.19-11.22c15.31-3.25,30.69-6.14,46.06-9.1c19.62-3.78,39.25-7.48,58.88-11.22
		c0.98-0.19,1.94-0.51,2.92-0.66c12.35-1.84,18.36,3.25,18.13,15.77c-0.47,25.65-1.17,51.3-1.73,76.96
		c-1.49,68.96-2.93,137.92-4.43,206.89c-0.24,10.99-0.7,21.98-1.01,32.97c-0.09,3.27-0.01,6.54-0.01,11.13
		c3.96-1.44,6.72-2.31,9.37-3.43c59.15-25.07,118.24-50.3,177.51-75.09c6.57-2.75,8.69-7.23,10.35-13.21
		c20.65-74.77,41.4-149.5,62.12-224.25c36.82-132.81,73.64-265.62,110.47-398.42c3.2-11.55,9.8-15.83,21.6-13.37
		c54.1,11.29,108.19,22.7,162.26,34.16c9.78,2.07,12.63,6.12,12.26,16.2c-0.04,1-0.13,2-0.34,2.98
		c-5.19,23.74-10.2,47.53-15.72,71.19c-2.09,8.97-6.24,10.8-16.81,8.62c-19.89-4.09-39.75-8.36-59.63-12.51
		c-13.02-2.72-26.05-5.37-40.04-8.24c-1.22,3.61-2.5,6.94-3.48,10.35c-52.82,183.98-105.61,367.97-158.41,551.95
		c-0.92,3.2-1.3,6.84-3.15,9.39c-1.96,2.71-5.08,5.09-8.2,6.32c-5.15,2.04-10.88,2.61-16.09,4.56
		C348.15,2232.07,303.63,2248.93,258.35,2265.96z M158.83,2265.88c-5.18,2.29-10.31,4.67-15.54,6.83
		c-7.53,3.12-13.37,0.02-14.56-8.04c-0.58-3.91-0.18-7.98-0.08-11.97c0.96-40.31,1.97-80.62,2.91-120.93
		c1.29-54.97,2.6-109.94,3.77-164.92c0.29-13.59,0.04-27.19,0.04-41.81c-32.12,6.18-63.69,12.26-94.87,18.26
		c-2.69,14.86-3.46,50.27-1.27,59.08c13.77-1.19,27.69-2.18,41.56-3.65c18.94-2.01,22.17,0.69,21.39,19.41
		c-1.83,43.94-3.76,87.88-5.62,131.82c-2,47.27-3.97,94.54-5.9,141.82c-0.21,5.13-0.03,10.27-0.03,16.19
		c5.37-1.93,9.74-3.43,14.06-5.06c94.7-35.69,189.35-71.52,284.17-106.89c8.56-3.19,13.01-7.14,15.6-16.4
		c19.78-70.86,40.36-141.5,60.67-212.21c32.81-114.23,65.61-228.46,98.37-342.7c3.63-12.65,6.65-14.76,19.11-12.15
		c29.33,6.15,58.64,12.38,87.96,18.51c3.44,0.72,6.96,1.04,10.83,1.6c4.41-20.39,8.58-39.73,12.88-59.62
		c-52.88-11.11-104.58-21.97-156.7-32.91c-1.22,3.84-2.32,6.94-3.2,10.1c-55.91,201.45-111.81,402.9-167.67,604.36
		c-1.33,4.8-3.07,9.72-3.1,14.59c-0.04,7.64-3.73,11.67-10.34,14.07c-2.5,0.91-4.92,2.03-7.37,3.07
		C284.01,2212.64,222.13,2238.97,158.83,2265.88z"/>
	<path class="st8" d="M1467.61,2395.59c75.54-61.44,189.91-43.07,241.67,41.3c56.11,91.46,4.94,210.43-100,232.99
		c-88.1,18.95-174.7-34.35-193.81-121.12C1402.14,2488.27,1420.55,2437.04,1467.61,2395.59z M1722.07,2526.49
		c0.65-16.09-0.81-31.92-5.25-47.47c-19.12-67.03-83.1-113.04-152.99-109.52c-51.42,2.6-92.16,25.07-120.11,68.41
		c-41.18,63.86-24.8,149.12,37.99,195.04c47.26,34.56,99.44,41.21,153.18,17.57C1687.41,2627.42,1716.2,2585.63,1722.07,2526.49z"/>
	<path class="st9" d="M517.29,1681.16c10.45-35.59,20.58-70.42,30.85-105.22c2.81-9.52,5.13-10.77,14.45-8.35
		c33.5,8.7,66.99,17.45,100.47,26.23c5.73,1.5,7.37,3.72,6.33,8c-1.15,4.75-4.34,6.66-9.95,5.24
		c-28.39-7.21-56.74-14.57-85.12-21.85c-2.22-0.57-4.5-0.92-7.21-1.46c-1.06,2.65-2.19,5-2.95,7.47
		c-52.37,170.2-104.71,340.42-157.06,510.63c-6.85,22.27-13.66,44.55-20.64,66.78c-2.34,7.44-2.56,7.38-12.9,6.42
		c0.61-3.8,0.82-7.63,1.87-11.22c18.77-64.22,37.64-128.41,56.51-192.6C460.29,1874.79,488.66,1778.36,517.29,1681.16z"/>
</g>
<g>
	<path class="st10" d="M1314.96,2324.71c-108.03,41.31-215.34,82.34-322.69,123.27c-10.24,3.9-20.65,7.41-31.17,10.47
		c-3.54,1.03-8,1.07-11.46-0.11c-40.03-13.62-79.92-27.61-119.91-41.35c-6.75-2.32-10.04-6.31-11.07-13.61
		c-8.17-57.93-11.38-116.04-6.2-174.4c6.1-68.7,21.96-134.69,56.25-195.28c21.29-37.62,48.6-70.02,84.52-94.52
		c53.11-36.21,111.73-46.73,174.48-35.92c57.4,9.89,107.7,35.78,154.07,70.1c42.6,31.53,79.16,69.19,112.22,110.45
		c10.39,12.97,21.75,25.16,32.18,38.1c5.4,6.7,9.79,14.22,14.57,21.41c14.18,21.33,28.51,42.56,42.41,64.07
		c5.41,8.37,10.08,17.24,14.65,26.11c6.47,12.55,3.53,19.91-9.55,24.92c-46.32,17.74-92.66,35.46-138.99,53.18
		C1338.07,2315.88,1326.87,2320.14,1314.96,2324.71z M948.48,2208.55c-1.67,11.84-4.04,23.63-4.89,35.53
		c-3.79,53.41,2.92,105.69,18.33,156.88c2.75,9.12,6.05,18.08,9.43,28.09c162.76-62.47,324.86-123.51,487.32-187.41
		c-8.95-15.76-16.66-30.51-25.45-44.59c-37.68-60.29-85.19-110.87-147.88-145.66c-48.53-26.94-100.05-41.55-156.25-34.18
		c-32.97,4.32-63.18,15.7-90.41,34.84c-1.54,1.08-2.66,2.74-5.13,5.36c2.52,1.86,4.91,3.18,6.74,5.05
		c5.33,5.42,8.01,12.24,9.14,19.61c1.58,10.35-3.09,20.62-11.04,24.99c-7.96,4.38-17.45,2.93-25.82-4.37
		c-2.71-2.37-4.79-5.47-7.05-8.32c-1.37-1.72-2.54-3.59-3.87-5.49c-1.32,0.98-2.22,1.46-2.87,2.17c-1.13,1.22-2.14,2.55-3.13,3.88
		c-23.57,31.53-37.59,67.23-45.89,105.39c-0.54,2.46,0.1,5.18,0.23,7.71C949.98,2208.03,950.04,2207.97,948.48,2208.55z
		 M1023.2,2074.18c-1.97-1.13-3.94-2.25-6.6-3.78c0.33,12.51,4.07,18.1,13.51,21.33C1030.38,2085.28,1027.15,2080.34,1023.2,2074.18
		z"/>
	<path class="st10" d="M1221.97,2213.8c8.63-4.18,16.97-6.33,25.83-5.19c27.75,3.57,42.94,29.12,33,55.34
		c-7.71,20.32-28.62,33.04-49.93,30.36c-23.62-2.97-38.89-24.34-33.89-47.57C1200.11,2232.2,1208.45,2221.46,1221.97,2213.8z
		 M1225.59,2227.99c-5.69,3.8-9.83,8.83-12.29,15.24c-6.53,16.96,3.52,34.8,20.66,36.68c11.79,1.29,24.26-6.02,29.92-17.53
		c5.34-10.86,3.77-23.43-3.94-31.52c-7.95-8.35-19.08-9.79-32.16-4.16C1227.49,2226.82,1227.21,2227.02,1225.59,2227.99z"/>
	<path class="st10" d="M1022.21,2271.83c-11.81-12.63-16.78-26.35-10.52-42.58c7.01-18.18,26.37-25.33,43.6-16.29
		c16.55,8.68,24.65,29.54,18.27,47.08c-6.71,18.44-26.92,26.13-44.21,16.75C1027.02,2275.53,1024.94,2273.81,1022.21,2271.83z
		 M1020.72,2232.85c-3.26,13.43-0.78,25.14,10.84,33.63c12.44,9.09,27.99,3.87,32.93-10.71c3.01-8.88,1.1-17.08-3.7-24.68
		C1049.9,2213.86,1027.27,2215.94,1020.72,2232.85z"/>
	<path class="st10" d="M1322.52,2193.75c-7.25-5.16-12.18-11.25-14.95-19c-6.81-19.09,5.14-36.94,25.38-37.9
		c16.16-0.77,32.51,10.78,36.89,26.51c6.64,23.88-13.27,39.18-32.76,35.86C1332.29,2198.4,1327.8,2195.86,1322.52,2193.75z
		 M1316.27,2169.75c4.44,12.22,13.4,18.63,26.13,19.54c12.65,0.9,21.25-9.79,18.2-22.04c-2.27-9.1-8.19-15.04-16.57-18.5
		C1327.88,2142.07,1315.58,2150.68,1316.27,2169.75z"/>
	<path class="st10" d="M1125.61,2111.75c-3.06,2.09-5.42,4.09-8.14,5.14c-9.72,3.75-20.32-0.64-23.56-10.47
		c-1.58-4.81-2.07-10.6-1.04-15.53c2.51-12.02,15.06-19.36,25.7-16.02c10.81,3.39,16.66,16.11,12.45,27.74
		C1129.91,2105.67,1127.8,2108.36,1125.61,2111.75z"/>
	<path class="st10" d="M949.96,2208.06c1.72-2.32,3.3-4.81,5.22-7.01c5.59-6.39,14.02-6.69,20.23-0.85
		c7.01,6.6,8.06,18.73,2.27,26.39c-5.72,7.58-15.87,7.84-22.36,0.62c-4.53-5.04-5.39-11.17-5.34-18.42
		C950.04,2207.97,949.98,2208.03,949.96,2208.06z"/>
	<path class="st10" d="M1116.35,2233.63c-1.67-7.94-0.65-14.54,4.77-19.97c7.19-7.2,17.97-6.66,24.43,1.19
		c5.12,6.22,5.88,15.06,1.8,22.32c-3.57,6.34-8.96,9.6-16.35,8.94C1123.59,2245.44,1119.01,2241.16,1116.35,2233.63z
		 M1136.77,2220.76c-0.88-0.45-1.77-1.28-2.65-1.28c-5.22,0.03-7.96,2.72-8.11,7.73c-0.13,4.33,3.06,8.52,6.57,8.6
		c3.78,0.09,7.03-4.14,6.83-9.37C1139.35,2224.89,1138.29,2223.37,1136.77,2220.76z"/>
	<path class="st10" d="M1246.87,2086.79c13.78-7.33,24.68-1.04,25.07,13.65c0.02,0.66,0.04,1.33-0.01,1.99
		c-0.56,8.25-3.99,14.68-11.77,18.23c-5.53,2.52-10.59,1.14-14.67-2.88c-6.02-5.93-7.27-13.39-4.69-21.19
		C1241.9,2093.24,1244.44,2090.37,1246.87,2086.79z M1262.09,2101.17c-0.09-0.99,0.19-2.27-0.33-2.9c-1.55-1.89-4.07-5.29-5.01-4.93
		c-2.43,0.92-4.31,3.45-6.19,5.54c-0.56,0.62-0.5,1.89-0.57,2.87c-0.25,3.71-0.46,7.91,3.57,9.47c4.61,1.78,6.21-2.35,7.83-5.6
		C1261.82,2104.76,1261.83,2103.7,1262.09,2101.17z"/>
	<path class="st10" d="M975.64,2336.43c0.21-1.71,0.23-2.73,0.51-3.67c2.56-8.37,7.05-12.59,13.29-12.57
		c6.44,0.02,12.26,5.22,13.48,13.53c0.64,4.34,0,9.24-1.41,13.43c-1.78,5.29-6.04,8.84-12.04,8.56c-5.78-0.26-9.95-3.47-11.86-8.96
		C976.54,2343.7,976.23,2340.37,975.64,2336.43z"/>
	<path class="st10" d="M1162.82,2124.05c0.68,3.34,1.36,5.97,1.3,8.58c-0.14,6.22-3.16,10.89-8.99,13.14
		c-5.63,2.17-11.51,1.7-15.92-2.46c-3.02-2.84-5.49-6.79-6.89-10.71c-2.57-7.2,0.45-14.82,6.29-18.4
		c5.87-3.59,13.66-2.63,19.25,2.72C1159.73,2118.72,1160.96,2121.17,1162.82,2124.05z M1152.01,2136.08
		c2.8-6.6,2.29-9.96-1.92-12.73c-4.15-2.73-8.09-0.85-8.48,4.05C1141.21,2132.45,1143.13,2134.43,1152.01,2136.08z"/>
</g>
<g>
	<path class="st11" d="M1745.83,1007.88c-4.19,7.28-8.12,13.85-11.86,20.54c-3.04,5.43-2.94,10.87,0.87,15.94
		c4.72,6.3,13.29,7.61,19.49,2.68c2.54-2.02,4.67-4.78,6.36-7.59c33.91-56.31,54.57-116.82,57.69-182.85
		c0.28-5.98,0.12-12-0.09-17.99c-0.21-5.98-0.74-11.95-1.2-18.95c2.01,2.61,3.76,4.5,5.08,6.66c29.77,48.57,45.8,101.24,45,158.33
		c-0.77,55.04-15.01,106.03-50.2,149.65c-31.56,39.12-72.46,62.6-122.27,68.83c-44.81,5.6-86.84-4.78-125.6-27.58
		c-52.63-30.96-90.07-75.45-113.77-131.43c-26.64-62.9-31.87-127.61-12.87-193.47c9.92-34.37,26.69-65.3,52.75-90.52
		c15.75-15.25,34.45-26.22,54.24-35.05c70.47-31.45,136.36-19.52,198.58,22.45c4.76,3.21,8.54,8.38,11.76,13.31
		c15.55,23.83,29.91,48.33,29.82,78.02c-0.05,15.28-0.47,30.71-2.59,45.81C1780.94,927.95,1766.87,968.73,1745.83,1007.88z
		 M1603.95,938.67c1.15,2.76,2.14,5.6,3.46,8.27c11.64,23.38,29,40.51,54.53,47.85c34.04,9.78,62.52-9.33,66.58-44.48
		c0.68-5.85,0.24-11.96-0.54-17.83c-4.41-33.24-33.16-64.51-65.48-71.56c-30.04-6.55-56.64,10.34-61.96,39.82
		C1598.34,912.98,1599.27,925.27,1603.95,938.67z"/>
</g>
<g>
	<path class="st12" d="M888.64,1264.62c6.9-18.86,17.66-32.09,37.65-37.22c19.93-5.11,39.64-7.21,60-3.84
		c5.85,0.97,11.96,0.33,17.95,0.4c19.89,0.24,39.91-1.51,59.47,3.87c1.25,0.34,2.65,0.1,3.98,0.14c20.57,0.67,41.17,0.85,61.7,2.17
		c20.11,1.3,40.13,4.11,60.23,5.61c16.53,1.23,33.13,1.57,49.71,2.17c4.02,0.15,8.14-0.34,10.94,3.38
		c4.07,5.41,9.98,7.38,16.15,9.08c13.42,3.7,26.74,7.76,40.21,11.29c5.08,1.33,10.57,1.1,15.64,2.47c4.3,1.17,9.25,2.66,12.17,5.68
		c7.35,7.61,14.13,15.85,20.35,24.42c6.78,9.33,14.85,16.84,25.11,22.01c4.84,2.44,6.44,6.84,5.86,11.63
		c-0.67,5.55-2.31,10.99-3.62,16.45c-1.27,5.27-4.66,7.96-10.12,7.61c-8.58-0.54-17.15-1.53-25.74-1.78
		c-11.65-0.34-23.34,0.31-34.97-0.31c-13.19-0.7-26.33-2.32-39.49-3.54c-8.24-0.76-16.49-1.41-24.71-2.32
		c-12.49-1.38-24.97-2.87-37.43-4.44c-8.52-1.07-17.01-2.35-25.51-3.54c-21.27-2.97-42.53-6.04-63.82-8.87
		c-14.41-1.91-28.87-3.5-43.31-5.15c-6.9-0.79-13.83-1.3-20.73-2.11c-16.08-1.88-32.14-3.93-48.22-5.77
		c-2.95-0.34-6.08-0.46-8.97,0.1c-14.19,2.75-28.25,1.03-42.51,0.37c-16.07-0.74-31.49-4.4-47.08-7.05
		c-9.93-1.69-19.29-6.74-29.21-10.39C879.42,1285.2,883.59,1275.19,888.64,1264.62z"/>
</g>
<g>
	<path class="st13" d="M1396.37,1028.51c-6.35,3.72-12.07,7.12-17.93,10.24c-14.66,7.81-30.42,11.1-46.94,11.34
		c-4.27,0.06-8.53,0.93-12.8,1.34c-2.64,0.25-5.33,0.69-7.94,0.43c-11.51-1.13-23.05-2.14-34.49-3.83
		c-16.02-2.37-32.13-4.54-47.89-8.14c-39.28-8.98-76.97-22.58-113.68-39.33c-30.43-13.89-58.62-31.14-84.57-52.01
		c-8.46-6.81-15.43-15.54-22.71-23.72c-8.82-9.9-17.75-19.77-25.74-30.32c-10-13.2-20.02-26.55-28.31-40.84
		c-7.11-12.25-12.25-25.73-17.43-38.99c-5.42-13.85-10.72-27.86-14.48-42.21c-3.84-14.66-6.57-29.74-8.24-44.81
		c-1.21-10.94,0.16-22.15,0.27-33.24c0.04-3.54-0.68-7.13-0.34-10.62c1.59-16.18,11.83-27.77,21.63-39.46
		c3.17-3.79,6.84-7.48,10.98-10.08c14.69-9.21,25.82-22.03,35.73-35.73c13.82-19.11,26.62-39,36.43-60.56
		c6.18-13.6,12.43-27.23,17.42-41.29c5.74-16.16,11.18-32.57,14.86-49.28c7.91-35.89,25.29-66.35,49.03-93.94
		c15.48-17.99,32.15-34.23,51.77-47.79c22.08-15.26,46.7-23.69,72.34-29.4c14.78-3.29,30.09-4.19,45.13-6.33
		c19.06-2.71,38.23-2.22,57.35-1.8c15.06,0.33,30.01,2.07,44.99,4.71c17.84,3.14,30.84,13.12,43.39,24.45
		c16.89,15.25,29.22,34.09,42.3,52.59c18.13,25.64,24.63,54.89,31.17,84.24c4.66,20.93,7.26,42.35,10.08,63.64
		c1.52,11.47,1.1,23.19,2.35,34.71c3.91,36.2,1.44,72.49,1.71,108.73c0.18,24.9-1.09,49.82-1.89,74.73
		c-0.46,14.25-1.43,28.49-1.89,42.75c-0.79,24.46-0.78,48.96-2.19,73.39c-1.3,22.64-7.2,44.42-15.65,65.49
		c-11.16,27.83-24.12,54.8-40.22,80.1c-9.97,15.67-20.66,30.95-34.43,43.69C1402.9,1023.83,1399.82,1025.84,1396.37,1028.51z"/>
	<path class="st13" d="M809.58,574.48c9.99,15.03,17.77,30.33,22.55,47.05c3.64,12.72,7.74,25.34,10.54,38.24
		c1.64,7.58,1.17,15.62,1.61,23.45c0.59,10.58,1.46,21.15,1.66,31.73c0.5,26.2-4.27,51.64-10.69,76.98
		c-7.55,29.77-18.57,58.06-32.88,85.1c-13.39,25.3-28.96,49.17-48.57,70.22c-6.56,7.04-12.56,14.64-19.49,21.28
		c-22.88,21.94-48.1,40.8-76.75,54.56c-20.66,9.92-42.36,17.47-65.31,19.56c-17.87,1.63-35.71,1.52-53.76-1.85
		c-32.75-6.11-59.72-21.83-82.01-45.67c-12.67-13.56-23.74-28.66-30.51-46.31c-4.6-12.01-9.94-23.84-13.26-36.21
		c-4.13-15.4-7.29-31.11-7.13-47.31c0.09-8.9-1.46-17.82-1.47-26.73c-0.01-13.77,0.65-27.49,3.49-41.11
		c2.22-10.65,2.15-21.82,4.79-32.33c4.18-16.65,8.96-33.26,14.97-49.33c9.69-25.87,22.37-50.42,37.73-73.41
		c12.16-18.21,25.69-35.42,40.8-51.35c15.14-15.96,31.12-30.95,49.47-43.16c19.66-13.08,40.24-24.46,62.71-32.18
		c27.07-9.29,55.13-11.93,83.22-9.21c20.06,1.94,38.96,9.32,57.07,19.25C779.81,537.5,794.8,555.13,809.58,574.48z"/>
</g>
<g>
	<path class="st14" d="M1276.61,963.62c10.11-2.67,19.29-5.54,28.6-7.88c10.6-2.66,19.51-8.38,28.15-14.66
		c18.46-13.42,34.18-29.68,48.29-47.52c3.27-4.13,5.85-8.91,8.17-13.67c16.98-34.72,31.51-70.45,44.21-106.96
		c6.55-18.83,14.46-37.19,20.85-56.07c7.13-21.08,14.45-42.21,19.5-63.84c8.61-36.88,16.33-74.05,18.81-111.98
		c1.24-18.92,1.45-37.9,2.17-58.06c-0.88,1.91-1.77,2.88-1.57,3.53c5.59,18.02,5.24,36.79,6.35,55.26
		c1.68,27.88,2.49,55.84,2.73,83.77c0.13,15.24-2.03,30.48-2.53,45.74c-0.65,19.93-0.69,39.88-0.96,59.82
		c-0.43,30.95-0.9,61.89-1.22,92.84c-0.27,26.37-6.45,51.39-17.29,75.27c-9.89,21.79-19.42,43.81-30.61,64.93
		c-12.68,23.92-28.92,45.58-49.66,63.26c-18.07,15.4-39.63,22.65-63.16,24.27c-37.13,2.55-73.74-0.68-109.88-9.68
		c-46.66-11.63-91.58-28.01-134.11-50.43c-26.29-13.86-50.3-31.19-71.74-53.8c15.64,5.15,30.2,9.83,44.68,14.73
		c44.75,15.14,90.85,20.65,137.82,18.18C1228.1,969.4,1251.9,966.06,1276.61,963.62z"/>
	<path class="st14" d="M867.78,692.06c26.9,117.92-22.19,249.9-115.98,321.82c-30.87,23.67-65.04,40.37-103.63,46.74
		c-37.84,6.25-74.96,4.18-110.35-12.31c-7.54-3.51-15.03-7.12-22.46-10.84c-1.95-0.98-3.59-2.57-5.41-3.92
		c19.89,0.86,39.34,2.53,58.77,2.36c33.68-0.31,65.49-7.48,95.61-24.08c46.42-25.58,83.05-61.33,111.97-104.75
		c43.88-65.89,64.99-138.9,61.63-218.36c-1-23.6-3.52-47.07-11.52-69.64c-2.53-7.13-3.58-14.79-5.33-22.34
		C845,624.16,858.93,656.41,867.78,692.06z"/>
	<path class="st14" d="M1481.61,418.6c1.06,4.79,1.97,8.87,2.89,12.95c0.5-0.09,0.99-0.17,1.49-0.26c-1-6.49-2-12.99-3-19.48
		c-0.38,0.02-0.77,0.05-1.15,0.07C1481.71,413.89,1481.59,415.89,1481.61,418.6z"/>
</g>
<g>
	<path class="st15" d="M1129.06,2c2.85,3.04,4.53,6.27,6.72,9.1c12.23,15.81,24.59,31.53,36.9,47.28c1.23,1.58,2.5,3.13,3.66,4.75
		c5.9,8.24,4.85,13.01-4.44,17.11c-16.76,7.4-33.67,14.44-50.52,21.63c-102.63,43.78-205.24,87.62-307.91,131.32
		c-47.49,20.22-95.16,40.02-142.64,60.29c-55.44,23.67-110.71,47.73-166.13,71.44c-45.94,19.65-91.99,39.03-137.99,58.52
		c-2.15,0.91-4.27,1.96-6.5,2.55c-5.93,1.57-9.38-0.44-11.76-6.13c-11.2-26.7-22.47-53.37-33.71-80.05
		c-0.52-1.23-1.08-2.44-1.58-3.67c-3.81-9.42-2.7-12.39,6.42-16.37c7.32-3.2,14.72-6.23,22.11-9.29
		c84.64-35.03,169.28-70.03,253.9-105.1c4.7-1.95,9.05-2.99,14.4-2.13c46.68,7.49,93.42,14.59,140.15,21.8
		c1.3,0.2,2.62,0.31,4.85,0.57c1.41-2.76,2.99-5.59,4.35-8.53c13.41-29.03,27.02-57.97,39.99-87.19c3.1-6.99,7.51-11.13,14.35-13.98
		c52.24-21.8,104.37-43.89,156.59-65.74c35.64-14.92,71.38-29.6,107.06-44.42c1.53-0.63,2.94-1.54,4.55-3.04
		C1097.38,2,1112.75,2,1129.06,2z"/>
	<path class="st15" d="M183.21,1461.85c3.3-11.69,8.99-13.54,17.99-6.45c27.91,21.99,59.37,37.31,93.65,45.47
		c48.37,11.51,92.47-0.37,131.8-30.01c33.36-25.14,55.55-58.81,71.56-96.89c15.27-36.3,22.76-74.36,25.54-113.47
		c0.09-1.33,0.07-2.67,0.23-3.99c1.09-8.94,8.87-12.57,15.6-6.64c3.85,3.39,7.36,8.05,9.06,12.84
		c23.27,65.49,28.32,131.47,1.31,197.05c-23.59,57.27-63.92,97.94-124.55,115.11c-55.37,15.68-107.59,5.3-156.37-23.77
		c-31.36-18.69-55.89-45.03-78.26-73.43C187.38,1473.36,185.77,1467.63,183.21,1461.85z"/>
	<path class="st15" d="M1724.25,1515.69c-68.66-50.95-99.43-118.84-93.85-203.1c0.94-14.16,4.68-28.23,8.09-42.1
		c1.28-5.21,4.76-10.17,8.21-14.47c3.07-3.81,7.79-5.03,12.69-2.65c4.82,2.35,5.79,6.22,5.93,11.46
		c1.8,65.95,21.62,124.9,68.55,172.97c11.49,11.76,24.74,21.32,39.64,28.35c44.26,20.88,86.06,16.17,124.94-13.13
		c23.43-17.66,39.39-41.29,51.37-67.78c1.23-2.73,2.21-5.61,3.72-8.17c3.87-6.57,10.22-9.06,17.01-6.96
		c7.03,2.17,12.03,8.67,11.34,15.69c-2.7,27.69-8.18,54.64-21.58,79.45c-37.85,70.11-114.33,99.79-190.13,73.72
		C1754.02,1533.4,1738.92,1525.76,1724.25,1515.69z"/>
	<path class="st15" d="M1036.77,951.64c-4.94-4.68-9.48-8.95-15.25-14.4c6.93,2.82,12.46,5.08,18.61,7.58
		c-0.41,2.69-0.79,5.17-1.18,7.65c-0.05,0.31-0.21,0.6-0.32,0.9C1038.14,952.92,1037.66,952.48,1036.77,951.64z"/>
</g>
<g>
	<path class="st16" d="M708.92,1112.69c-63.62,23.33-127.53,27.79-192.04,8.64c-81.4-24.15-140.65-75.68-178.82-150.92
		c-37.48-73.87-45.26-152.16-27.76-232.54c22.52-103.39,77.95-184.97,166.83-243.13c21.26-13.91,44.03-24.96,68.07-33.27
		c61.75-21.34,124.11-24.68,187.18-6.07c87.41,25.79,148.15,82.32,185.01,164.33c36.98,82.28,38.92,167.43,12.16,252.84
		c-30.05,95.9-88.46,169.99-176.47,219.63C739.22,1100.01,724.16,1105.71,708.92,1112.69z M314.1,870.45
		c0.61,2.58,1.36,5.13,1.82,7.74c7.64,42.71,22.78,82.43,47.27,118.42c15.4,22.64,33.51,42.66,54.48,60.43
		c22.34,18.92,47.21,33.37,73.97,44.39c29.29,12.06,60.23,18.62,91.82,20.24c17.82,0.92,35.91-0.16,53.67-2.2
		c14.7-1.69,29.19-5.7,43.6-9.38c29.5-7.52,57.37-19.24,83.14-35.38c33.38-20.91,63.52-45.66,88.87-76.18
		c18.56-22.35,34.49-46.26,47.96-71.93c12.74-24.27,22.02-49.93,28.64-76.35c4.89-19.51,9.03-39.57,10.16-59.57
		c1.55-27.43,1.32-55-3.17-82.47c-5.3-32.42-15.41-63.14-29.68-92.46c-10.78-22.15-24.83-42.46-41.11-60.9
		c-22.84-25.87-49.77-46.82-80.23-63.22c-17.39-9.37-36.1-15.01-54.91-20.45c-24.31-7.02-49.2-10.34-74.45-11.16
		c-16.32-0.53-32.5,0.89-48.47,3.99c-17.2,3.34-34.62,6.16-51.34,11.21c-32.01,9.66-61.29,25.2-88.77,44.34
		c-27.75,19.32-52.47,41.92-73.58,68.13c-23.21,28.84-41.95,60.52-56.15,94.9c-18.08,43.8-26.57,89.51-27.36,136.6
		C310,835.67,312.69,852.18,314.1,870.45z"/>
	<path class="st16" d="M1421.49,574.34c1.14,79.09-28.7,142.9-89.69,191.57c-31.58,25.2-67.93,39.76-108.73,39.69
		c-64.91-0.1-111.2-31.11-138.4-89.23c-22.23-47.5-21.45-97-5.64-146.29c18.99-59.19,55.95-104.21,111.01-133.06
		c41.94-21.97,86.44-27.19,131.47-10.14c48.29,18.28,77.92,54.49,92.21,103.34C1417.81,544.16,1418.95,558.97,1421.49,574.34z
		 M1179.41,477.13c-2.48,1.6-4.95,3.21-8.06,3.53c-7.3-6.47-10.05-6.46-16.78-0.26c-25.36,23.32-44.64,50.82-57.21,82.96
		c-7.52,19.24-13.6,39.07-14.94,59.59c-1.12,17.12-1.69,34.46,1.4,51.72c6.67,37.29,22.46,69.12,52.75,92.87
		c19.63,15.4,42.06,23.97,66.7,26.29c22.13,2.09,43.78-1.52,64.6-8.96c35.99-12.87,64.93-36,88.79-65.17
		c19.29-23.58,33.04-50.5,41.73-79.93c8.37-28.34,11.42-57.22,7.26-86.36c-5-35.08-19.03-66.04-45.68-90.62
		c-20.27-18.7-44.09-29.71-71.14-32.53c-25.04-2.61-49.85,0.66-73.3,10.29c-11.93,4.9-23.68,10.45-33.61,19.25
		c-3.26,2.89-4.38,5.63-3.74,9.45C1178.56,471.54,1179.4,473.74,1179.41,477.13z"/>
	<path class="st17" d="M314.06,869.56c-1.37-17.38-4.06-33.89-3.79-50.36c0.79-47.1,9.27-92.8,27.36-136.6
		c14.19-34.38,32.93-66.07,56.15-94.9c21.1-26.22,45.83-48.81,73.58-68.13c27.49-19.14,56.76-34.67,88.77-44.34
		c16.72-5.05,34.14-7.86,51.34-11.21c15.98-3.11,32.16-4.52,48.47-3.99c25.26,0.82,50.14,4.14,74.45,11.16
		c18.81,5.43,37.52,11.08,54.91,20.45c30.46,16.41,57.4,37.36,80.23,63.22c16.28,18.44,30.34,38.75,41.11,60.9
		c14.27,29.33,24.38,60.04,29.68,92.46c4.49,27.47,4.72,55.04,3.17,82.47c-1.13,20-5.27,40.06-10.16,59.57
		c-6.62,26.43-15.9,52.08-28.64,76.35c-13.47,25.67-29.4,49.58-47.96,71.93c-25.35,30.52-55.49,55.27-88.87,76.18
		c-25.77,16.14-53.64,27.86-83.14,35.38c-14.41,3.67-28.9,7.69-43.6,9.38c-17.76,2.04-35.85,3.11-53.67,2.2
		c-31.59-1.63-62.53-8.18-91.82-20.24c-26.76-11.02-51.64-25.46-73.97-44.39c-20.97-17.77-39.08-37.79-54.48-60.43
		c-24.48-35.99-39.62-75.71-47.27-118.42C315.46,875.58,314.72,873.02,314.06,869.56z M416.06,1033.01
		c5.55,4.74,10.91,9.72,16.68,14.19c20.86,16.16,43.35,29.49,67.99,39.14c24.27,9.5,49.53,15.43,75.32,17.26
		c23.1,1.64,46.31,0.52,69.5-3.19c37-5.92,71.29-18.91,103.44-37.29c32.73-18.71,61.6-42.34,86.52-71.11
		c20.64-23.83,37.86-49.68,51.85-77.64c10.09-20.17,18.42-41.25,23.92-63.25c5.71-22.84,10.88-45.79,10.78-69.54
		c-0.01-1.99,0.26-3.98,0.4-5.97c0.48-6.93,1.69-13.9,1.29-20.78c-0.7-11.87-2.41-23.68-3.68-35.52
		c-3.26-30.32-12.01-59.16-24.85-86.65c-19.3-41.31-46.3-76.69-83.38-103.75c-25.44-18.56-53-33.09-83.61-41.11
		c-14.06-3.68-28.26-7.22-42.62-9.26c-13.41-1.9-27.17-2.79-40.68-2.18c-14.81,0.67-29.55,3.3-44.25,5.55
		c-38.66,5.92-73.99,20.8-107.02,41.23c-28.35,17.54-53.72,38.58-75.98,63.72c-19.54,22.07-35.88,46.09-49.85,71.82
		c-11.61,21.4-19.77,44.29-26.85,67.53c-7.17,23.54-11.23,47.8-12.66,72.24c-1.31,22.49-0.25,45,3.24,67.52
		c3.89,25.12,10.11,49.43,20,72.66C366.55,973.84,387.3,1005.36,416.06,1033.01z"/>
	<path class="st18" d="M1171.98,481.94c2.48-1.6,4.95-3.21,8.44-5.45c3.57-2.13,6.19-3.54,8.69-5.14
		c31.75-20.42,66.11-28.13,103.47-21.43c41.13,7.37,67.53,33.41,85.5,69.05c6.51,12.9,8.9,27.67,9.77,42.16
		c2.18,35.98-2.62,70.77-19.8,103.15c-1.99,3.75-2.98,8.02-4.98,12.33c-1.3,2.55-2.07,4.81-2.98,7.25c-0.15,0.18-0.45,0.55-0.76,0.6
		c-0.72,0.28-0.88,0.63-1.02,1.34c-0.21,0.24-0.59,0.75-1.13,0.91c-1.29,1.77-2.05,3.38-2.98,5.21c-0.18,0.23-0.52,0.7-1.11,0.88
		c-3.93,5.07-7.27,9.95-10.83,15.12c-0.21,0.28-0.63,0.85-1.04,0.98c-0.55,0.94-0.69,1.75-1,2.79c-0.17,0.23-0.51,0.68-1.16,0.66
		c-9.16,8.39-17.67,16.8-26.51,25.46c-0.33,0.26-1,0.78-1.64,0.72c-14.93,9.57-28.81,19.82-45.23,25.91
		c-15.68,5.82-31.41,10.69-48.45,9.87c-8.31-0.4-16.66-0.06-25.82-0.14c-29.18-4.16-52.07-18.33-69.81-40.07
		c-25.33-31.02-32.51-67.89-29.1-106.71c1.88-21.38,7.59-42.2,16.54-62.14c10.6-23.6,24.48-44.76,42.25-63.41
		C1157.87,494.92,1165.06,488.56,1171.98,481.94z M1366.92,540.5c-17.18-58.46-67.3-87.41-126.31-72.45
		c-38.43,9.74-68.4,32.48-91.73,63.8c-30.69,41.21-45.58,87.12-36.89,138.86c4.32,25.72,15.47,48.3,35.9,65.13
		c29.57,24.35,63.28,27.74,98.96,17.17c32.67-9.67,59.26-28.93,80.29-55.27C1363.66,652.03,1380.79,600.88,1366.92,540.5z"/>
	<path class="st17" d="M1171.67,481.3c-6.61,7.26-13.8,13.62-20.4,20.54c-17.76,18.65-31.64,39.81-42.25,63.41
		c-8.96,19.94-14.66,40.76-16.54,62.14c-3.41,38.81,3.78,75.68,29.1,106.71c17.75,21.74,40.63,35.91,70.33,40.59
		c18.4,5.45,35.43,3.85,52.36,0.12c23.01-5.07,43.63-15.46,62.49-29.38c2.12-1.57,3.22-4.53,4.79-6.85c0,0,0.67-0.52,1.61-0.61
		c2.44-0.63,4.32-0.78,5.37-1.79c6.62-6.36,13.12-12.85,19.49-19.45c1-1.04,1.15-2.9,1.69-4.38c0,0,0.34-0.45,0.92-0.81
		c0.72-1.17,0.86-1.97,1-2.77c0,0,0.42-0.57,1.27-0.8c5.72-4.25,10.56-8.29,10.78-15.35c0,0,0.34-0.47,1.14-0.69
		c1.5-1.94,2.2-3.66,2.89-5.38c0,0,0.39-0.5,0.89-0.78c0.89-0.53,1.06-0.89,1.03-1.34c0,0,0.3-0.37,1.04-0.79
		c1.47-2.71,2.2-5,2.93-7.3c1.46-4.03,2.45-8.3,4.44-12.04c17.19-32.37,21.98-67.16,19.8-103.15c-0.88-14.49-3.27-29.26-9.77-42.16
		c-17.97-35.63-44.38-61.67-85.5-69.05c-37.36-6.7-71.73,1.01-103.47,21.43c-2.49,1.6-5.12,3.01-8.38,4.56
		c-1.33-2.17-2.17-4.37-2.55-6.65c-0.63-3.82,0.48-6.55,3.74-9.45c9.93-8.8,21.68-14.35,33.61-19.25
		c23.45-9.63,48.26-12.9,73.3-10.29c27.05,2.82,50.87,13.83,71.14,32.53c26.64,24.58,40.67,55.54,45.68,90.62
		c4.16,29.13,1.11,58.01-7.26,86.36c-8.69,29.43-22.44,56.35-41.73,79.93c-23.86,29.16-52.8,52.3-88.79,65.17
		c-20.82,7.44-42.48,11.05-64.6,8.96c-24.64-2.33-47.07-10.89-66.7-26.29c-30.28-23.76-46.08-55.58-52.75-92.87
		c-3.09-17.26-2.52-34.6-1.4-51.72c1.34-20.52,7.42-40.36,14.94-59.59c12.57-32.14,31.84-59.64,57.21-82.96
		C1161.31,474.21,1164.05,474.19,1171.67,481.3z"/>
	<path class="st18" d="M415.55,1032.51c-28.25-27.15-49-58.67-63.99-93.87c-9.89-23.23-16.11-47.54-20-72.66
		c-3.49-22.52-4.55-45.03-3.24-67.52c1.43-24.44,5.48-48.7,12.66-72.24c7.08-23.24,15.24-46.14,26.85-67.53
		c13.97-25.73,30.31-49.75,49.85-71.82c22.25-25.14,47.62-46.18,75.98-63.72c33.03-20.43,68.36-35.31,107.02-41.23
		c14.7-2.25,29.44-4.88,44.25-5.55c13.52-0.61,27.27,0.28,40.68,2.18c14.36,2.04,28.56,5.57,42.62,9.26
		c30.61,8.02,58.17,22.55,83.61,41.11c37.08,27.06,64.09,62.45,83.38,103.75c12.84,27.49,21.59,56.33,24.85,86.65
		c1.27,11.84,2.98,23.65,3.68,35.52c0.41,6.88-0.81,13.85-1.29,20.78c-0.14,1.99-0.41,3.98-0.4,5.97
		c0.1,23.75-5.07,46.7-10.78,69.54c-5.5,22-13.84,43.08-23.92,63.25c-13.98,27.96-31.2,53.81-51.85,77.64
		c-24.92,28.77-53.79,52.41-86.52,71.11c-32.15,18.37-66.45,31.37-103.44,37.29c-23.19,3.71-46.39,4.83-69.5,3.19
		c-25.79-1.83-51.05-7.77-75.32-17.26c-24.64-9.64-47.14-22.98-67.99-39.14C426.97,1042.74,421.61,1037.76,415.55,1032.51z
		 M768.59,516.21c-31.49-16.3-64.92-25.79-100.29-28.06c-52.51-3.37-102.12,7.76-148.48,32.2
		c-81.16,42.8-135.23,108.95-163.8,195.62c-24.1,73.1-23.85,146.35,6.17,217.89c31.61,75.33,86.38,126.52,165.43,149.27
		c64.09,18.44,126.81,11.22,187.07-16.32c129.63-59.23,209.34-201.14,191.52-342.97C894.81,633.03,850.96,562.41,768.59,516.21z"/>
	<path class="st16" d="M1310.91,738.53c-0.93,2.38-2.02,5.34-4.15,6.91c-18.86,13.91-39.48,24.3-62.49,29.38
		c-16.93,3.73-33.96,5.33-51.53-0.05c7.82-0.52,16.16-0.86,24.48-0.46c17.04,0.82,32.77-4.05,48.45-9.87
		C1282.1,758.35,1295.98,748.1,1310.91,738.53z"/>
	<path class="st16" d="M1339.06,712.34c0.11,1.5-0.03,3.36-1.03,4.4c-6.37,6.61-12.87,13.1-19.49,19.45
		c-1.05,1.01-2.93,1.16-5.04,1.53C1321.39,729.13,1329.9,720.73,1339.06,712.34z"/>
	<path class="st16" d="M1353.1,692.79c0.37,6.89-4.48,10.92-9.98,14.89C1345.83,702.74,1349.17,697.85,1353.1,692.79z"/>
	<path class="st16" d="M1363.07,676.61c-0.19,2.01-0.91,4.3-2.23,6.83C1361,681.41,1361.77,679.15,1363.07,676.61z"/>
	<path class="st16" d="M1357.19,686.7c-0.17,1.56-0.86,3.27-2.18,4.99C1355.14,690.07,1355.9,688.47,1357.19,686.7z"/>
	<path class="st16" d="M1341.22,708.89c0.27,0.68,0.12,1.48-0.43,2.42C1340.53,710.64,1340.67,709.83,1341.22,708.89z"/>
	<path class="st16" d="M1359.33,684.45c0.34,0.41,0.17,0.77-0.52,1.06C1358.45,685.08,1358.62,684.73,1359.33,684.45z"/>
</g>
<g>
	<path class="st19" d="M1346.06,604.25c1.49-0.16,2.98-0.33,5.6,0.12c4.18-0.1,7.24-0.81,10.3-1.52c0.87-0.12,1.74-0.24,3.28,0.5
		c1.11,3.19,1.55,5.52,1.98,7.84c0.7,0.03,1.4,0.05,2.1,0.08c0.92-2.94,1.84-5.88,2.76-8.82c3.96-0.26,7.92-0.52,13.15-0.61
		c1.87,0.13,2.34-0.14,2.69-0.64c7.99-0.52,15.99-1.04,25.54-1.34c3.21-0.2,4.85-0.63,6.5-1.05c2.79-0.19,5.57-0.38,9.4-0.21
		c1.58,0.1,2.12-0.17,2.66-0.44c3.28-0.19,6.56-0.39,11.25-0.38c2.5-0.22,3.6-0.63,4.69-1.04c2.83-0.17,5.65-0.33,9.63-0.04
		c2.22,0.11,3.3-0.25,4.37-0.6c0.35-0.09,0.69-0.18,1.85,0.55c0.57,5.87,0.32,10.92,0.08,15.81c-7.68,0.49-7.68,0.49-12.66,7.55
		c-9.25,3.58-9.57,6.8-1.9,13.86c6.86-3.45,2.2-9.2,3.47-13.95c3.78-0.71,6.79-1.33,10.39-2.07c0.38,2.87,0.72,4.44,0.75,6.02
		c0.03,1.59-0.27,3.18-0.39,4.44c-8.21,4.72-8.21,4.72-5.09,12.71c-6.71,3.85-6.71,3.85-4.8,11.6c-1.49,2.13-2.87,3.57-3.54,5.29
		c-1.54,3.92-2.74,7.98-4.08,11.99c-3.44,0.12-6.87,0.24-11.09-0.48c0.05-2.61,0.88-4.38,1.71-6.16c-9.13-3.21-9.67-2.87-10.66,6.63
		c-1.31,0.22-2.62,0.43-5.38,0.39c-4.45,0.09-7.45,0.44-10.45,0.79c-3.49,0.17-6.98,0.34-11.52,0.09c-1.7-0.73-2.2-0.55-2.55,0.12
		c-9.39,0.28-18.78,0.55-29.1-0.08c-0.61-3.38-0.3-5.85,0.08-8.85c-4.83-0.24-8.94-0.44-13.58-0.67c3.86-5.3,9.34-8.72,8.95-15.57
		c-0.06-1.03,1.31-2.19,2.11-3.21c4.77-6.14,4.75-6.85-0.74-14.33c-4.38,5.24-15.07,3.13-15.11,13.95
		c-1.6-4.86-1.15-10.12-3.4-13.63c-2.43-3.78-7.41-5.92-11.28-8.78c-0.61,0.41-1.22,0.83-1.82,1.24c1.36,3.34,2.3,9.25,4.16,9.56
		c5.63,0.92,4.56,5.74,4.06,7.43c-1.71,5.82,0.35,11.08,0.19,16.31c2.68,1.04,4.72,1.82,7.39,2.86c-4.45,6.85,2.99,9.51,4.02,14.41
		c-2.78,0.15-5.56,0.3-9.2-0.44c-1.11-5.87-3.7-8.6-8.28-9.31c-3.04,3.92-5.79,7.44-8.53,10.97c-9.41,0.24-18.83,0.49-29.61,0.16
		c-2.8-1.25-4.23-1.94-6.84-3.18c3.14-1.56,5.27-2.61,5.81-2.88c0-4.16-0.14-7.15,0.03-10.12c0.29-5.02,3.53-9.91,0.34-15.69
		c-1.86-2.91-2.64-6.93-7.42-3.78c1.47,1.72,2.65,3.1,3.81,4.95c-0.02,0.47-0.1,1.41-0.79,1.34c-2.91-0.7-5.13-1.34-7.36-2.65
		c-0.66-2.21-1.31-3.75-1.56-5.85c2.4-3.13,4.63-5.55,6.34-8.29c2.21-3.55,1.51-6.35-2.99-7.41c-1.5-0.35-3-0.69-4.6-1.06
		c-0.91,3.26-1.65,5.92-2.73,9.8c-1.35-2.72-2.04-4.12-2.74-5.52c-0.57,0.09-1.14,0.18-1.71,0.27c0,4.24,0,8.49-0.55,13.19
		c-5.62,7.05-1.09,13.35,0.48,19.62c-3.1,2.33-5.9,4.43-7.59,5.7c1.67,5.51,2.67,8.83,3.68,12.15c-3.23,0.22-6.46,0.45-11.31,0.4
		c-5.29,0.16-8.96,0.58-12.62,1.01c-3.31,0.21-6.62,0.43-10.7,0.69c-1.01,2.41-2.8,5-3.11,7.75c-1.26,11.23-8.79,18.49-16.11,25.64
		c-8.6,8.41-17.71,8.05-26.52-0.12c-6.18-5.73-11.21-12.25-14.17-20.27c-1.26-3.4-2.93-6.64-4.8-10.82
		c-6.58,0.42-13.16,0.64-19.69,1.33c-4.89,0.52-7.92-1.26-8.49-6.07c-2.28-19.36-1.76-38.55,4.46-57.25
		c0.59-1.77,2.15-3.22,3.32-4.91c6.03,1.3,11.75,2.54,18.15,3.92c1.18-8.01,2.27-15.15,3.29-22.3c2.56-18.07,9.64-34.51,18.11-50.45
		c3.75-7.07,10.11-11.39,16.63-15.43c4.39-2.72,8.78-1.63,11.44,2.4c4.91,7.44,10.16,14.91,13.5,23.09
		c7.08,17.34,10.92,35.57,11.18,54.43c0.01,0.92,0.54,1.82,1.16,3.76c14.73-0.92,29.59-1.85,45.5-1.97
		c2.78,2.72,4.52,4.64,6.37,6.66c-0.97,4.46-1.93,8.88-3.01,13.85c6.7-0.15,10.94,5.79,10.07,9.12c-1.58,6.13-0.4,12.13-1.63,18.03
		c-0.18,0.85,0.14,1.8,0.29,3.36c3.04-1.12,5.63-2.07,7.82-2.87c-1.09-4.11-3.05-7.64-2.57-10.8c0.46-3.06,3.43-5.73,6.1-9.79
		c0.5-5.63-6.29-3.38-10.75-5.82c1.93-6.01,1.29-13,9.49-16.11c3.28,4.87-0.39,14.61,9.64,14.01c1.12-4.63,2.24-9.24,3.31-13.63
		c9.06,0.59,11.05-1,13.81-9.95c1.44-0.17,2.89-0.34,5.08,0.15c1.04,1.54,1.34,2.41,2.28,5.19
		C1345.81,606.73,1345.94,605.49,1346.06,604.25z M1344,618c0,0-0.01-0.01-1.21,0.14c-0.63,0.82-1.27,1.65-1.9,2.47
		c1.05,0.45,2.09,0.91,4.45,1.35c2.18-0.01,4.38-0.15,6.55-0.02c4.43,0.27,6.67-2.46,4.6-6.09c-0.88-1.54-2.79-2.5-4.25-3.75
		c-2.38,1.5-4.3,2.7-7.1,4.31C1344.57,616.82,1344.19,617.34,1344,618z M1227.99,594.98c-0.01-0.34-0.02-0.67,0.01-2.67
		c0.03-2.76,0.06-5.52,1.47-8.52c1.23-2.44,3.85-5.13,3.45-7.26c-1.31-6.92-3.72-13.64-5.55-19.9c-3.97,0-6.4,0-8.73,0
		c-0.16-0.94-0.3-1.28-0.25-1.59c0.15-0.97,0.36-1.92,0.56-2.88c1.51-7.2,0.37-9.6-5.99-12.61c-9.82-4.65-20.13,2.5-21.82,14.93
		c-0.54,0.39-0.93,0.89-2.44,2.17c-1.45,1.73-3.98,3.36-4.16,5.21c-0.96,9.85-9.21,18.4-4.95,29.24c1.02,2.6-3.45,6.01,0.38,10.61
		c-0.01,3.42-0.02,6.84-1.49,10.54c-6.24,3.92-4.04,10.22-4.45,17.09c0.01,0.88,0.01,1.75-0.01,4.42c0.65,6.08,1.3,12.16,1.96,20.03
		c0.67,6.55,1.76,13.08,1.92,19.64c0.32,13.07,7.18,23.3,14.7,32.79c7.14,9.01,16.35,6.79,22.84-4.35c1.3-0.95,2.83-1.68,3.85-2.87
		c7.3-8.49,7.1-18.75,8.28-29.08c1.33-0.72,3.83-1.48,3.8-2.15c-0.16-4.61-0.85-9.2-1.34-15.39c0-2.12,0-4.25,1.08-7.29
		c3.97-8.71,6.67-17.7,5.54-27.3c-2.1-1.17-4.46-2.49-6.73-5.46c0.03-2.78,0.05-5.56,1.5-8.59c3.93-5.33,3.43-6.46-3.42-7.74
		C1228,596,1228,595.99,1227.99,594.98z M1429.4,657.99c8.05-1.23,12.91-5.26,12.06-10.54c-1.53-0.49-3.27-1.05-4.93-1.59
		c-1.94-3.66,1.96-9.45-5.02-12.14c-3.07,7.62-5.93,14.74-9.01,22.39C1424.92,656.94,1426.41,657.45,1429.4,657.99z M1458.62,609.14
		c0.35-1.86,0.7-3.72,1.27-6.68c-3.37,1.36-5.29,2.13-8.53,3.43C1454.2,607.54,1455.76,608.45,1458.62,609.14z"/>
	<path class="st20" d="M689.77,712.72c23.09-7.92,47.03-11.26,71.23-13.08c7.37-0.55,14.63,0.3,20.81,5.21
		c-1.63,0.24-3.05-0.1-5.91-0.78c2.31,2.77,3.58,4.28,5.53,6.62c-3,0.4-4.85,0.65-7.27,0.98c0,2.53-0.92,7.16,0.16,7.69
		c5.41,2.65,3.64,5.58,1.99,9.55c-1.42,3.41-1.55,7.35-2.28,11.08c-0.02,0.02-0.06,0.07-0.76,0.18c-1.55,2.04-2.41,3.96-3.26,5.89
		c0,0,0.02-0.08-0.48,0.05c-1.49,0.53-2.48,0.93-3.46,1.33c-17.22,7.24-35.03,12.4-53.22,15.07c-17.02,23.85-38.05,43.35-61.1,62.46
		c2.13-16.78,6.82-32.61,0.03-47.78c0,9.48,0,19.25-0.64,29.03c-0.87-5.55-5.09-7.45-8.85-9.63c-7.61,4.53-3.29,12.92-6.97,18.44
		c0.91,0.31,1.81,0.63,2.72,1.65c-0.02,3.42,0.97,5.24,4.09,5.57c0.26,0.38,0.43,0.49,0.59,0.59c-0.25-0.27-0.5-0.54-0.74-1.53
		c0.03-3.43-1.04-5.19-3.58-5.83c2.52-1.23,4.61-1.91,6.62-2.57c-1.09-2.88-1.99-5.28-2.89-7.68c0.63-0.38,1.26-0.76,1.89-1.15
		c2.23,2.16,4.47,4.32,6.7,6.48c-2.89,20.17-12.51,36.33-29.84,47.06c-6.34,3.93-14.11,5.56-22.09,7.47
		c-0.65-3.61-1.1-6.72-0.08-9.24c1.74-4.34,4.4-8.31,6.47-12.08c-6.2-2.88-11.67-5.42-17.95-8.34c0.43,3.28,0.65,4.89,0.83,6.54
		c-0.04,0.03-0.1,0.09-0.74,0.15c-2.86,0-5.08-0.06-7-0.23c0.1-0.04-0.09,0.04-1.02,0.19c-1.28,0.41-2.11,0.61-2.34,1.09
		c-3.63,7.64-4.86,8.05-12.84,5.59c-1.29-0.4-3.18,1.12-5.12,1.89c1.77,1.61,2.92,2.66,4.22,3.85c-1.27,1.14-2.22,1.99-3.16,2.84
		c-3.18-2.62-6.36-5.23-9.23-8.9c1.12-4.7,1.63-8.63,6.85-8.32c0.21,1.3,0.42,2.6,0.68,4.2c3.45,0.46,6.89,0.92,10.17,1.36
		c3.69-5.33-0.68-7.16-4.12-9.5c2.1-1.73,3.7-3.04,5.24-4.31c-2.07-3.62-3.84-6.7-5.46-9.52c-3.82-0.31-7.09-0.58-10.86-0.88
		c1.12-6.06-0.61-12.54,5.57-16.39c7.69-4.79,15.19-10.15,24.7-10.6c1.79-0.08,4.32,0.44,5.34,1.67c4.29,5.17,8.49,4.03,12.52,0.17
		c5.3,4.87,13.88,6.37,24.18,4.35c-0.83-2.19-1.88-4.23-2.33-6.4c-0.37-1.78-0.78-4.73,0.13-5.41c8.79-6.55,2.99-18.4,9.59-25.59
		c-2.89-8.64,4.94-11.28,9.07-15.9c1.5-1.68,4.26-2.31,5.57-4.07c4.29-5.76,10.11-5.63,16.22-4.96c1.92,0.21,4.63,1.36,5.63,0.5
		c7.81-6.73,18.39-11.79,16.77-24.9c0,0,0.34-0.27,1.02-0.28C688.55,713.34,689.16,713.03,689.77,712.72z M675.48,788.66
		c-0.19,0.24-0.43,0.46-0.54,0.73c-0.07,0.17,0.07,0.43,0.11,0.65c0.22-0.75,0.45-1.5,1.76-2.32c0.41-0.58,0.81-1.16,2.06-2.37
		c0.58-1.42,1.17-2.83,1.75-4.25c-0.25-0.08-0.5-0.17-0.75-0.25c-0.56,1.77-1.12,3.54-2.73,5.46
		C676.74,786.85,676.32,787.4,675.48,788.66z M622.42,808.4c0.37-0.12,0.74-0.25,1.11-0.37C623.16,807.9,622.78,807.78,622.42,808.4
		z M616.79,804.97l0.34,0.21C617.13,805.17,617.08,804.76,616.79,804.97z"/>
	<path class="st21" d="M685.43,713.92c2.43,13.13-8.15,18.19-15.96,24.92c-0.99,0.86-3.71-0.29-5.63-0.5
		c-6.11-0.67-11.93-0.8-16.22,4.96c-1.31,1.76-4.07,2.39-5.57,4.07c-4.13,4.62-11.96,7.26-9.07,15.9c-6.6,7.2-0.8,19.05-9.59,25.59
		c-0.91,0.68-0.5,3.63-0.13,5.41c0.45,2.17,1.5,4.21,2.33,6.4c-10.3,2.02-18.88,0.52-24.18-4.35c-4.03,3.86-8.23,4.99-12.52-0.17
		c-1.01-1.22-3.55-1.75-5.34-1.67c-9.5,0.45-17.01,5.81-24.7,10.6c-6.19,3.86-4.45,10.33-5.57,16.39c3.77,0.31,7.04,0.57,10.86,0.88
		c1.62,2.83,3.38,5.9,5.46,9.52c-1.54,1.26-3.14,2.58-5.24,4.31c3.44,2.34,7.82,4.17,4.12,9.5c-3.28-0.44-6.72-0.9-10.17-1.36
		c-0.26-1.6-0.47-2.9-0.68-4.2c-5.22-0.31-5.72,3.62-7.01,7.72c-10.39-10.89-13.94-24.69-17.33-39.05
		c-5.5-23.31,1.7-42.22,16.61-59.39c1.52-1.75,3.08-3.46,5.84-5.13c15.22,6.23,18.42,11.1,17.09,24.65c2.79,0.63,5.9,0.73,8.42,2
		c10.55,5.33,20.11,4.57,29.14-3.34c2.61-2.29,5.9-3.8,8.91-5.69c-0.08-15.38-14.7-33.02-34.99-27.33
		c-6.97,1.95-13.46,1.67-20.24,1.65c1.9-8.36,3.71-16.73,5.71-25.06c11.45-47.8,22.92-95.6,34.47-143.38
		c2.02-8.36,4.49-16.6,7.27-26.82c2.72,23.56,13.44,42.59,19.47,63.14c2.42,8.24,5.71,16.25,7.74,24.58
		c7.44,30.58,14.5,61.25,21.9,92.69C668.84,718.82,676.72,716.36,685.43,713.92z M614.27,727.39c0.32,4.63,2.02,8.05,8.89,8.49
		c6.77,0.05,7.81-5.03,8.84-10c0.73-3.55,0.87-7.25,1.89-10.7c2.54-8.55,2.62-16.71-0.6-25.29c-1.91-5.09-4-12.17-1.91-16.23
		c3.42-6.65,1.33-13.63,4.62-19.62c-2.16-1.42-3.78-2.49-5.27-3.47c1.21-10.07,3.76-20.03-3.55-28.8c-0.59-0.71-0.73-1.82-1.01-2.77
		c-2.77-9.43-5.41-18.9-8.39-28.26c-0.53-1.67-2.43-2.91-3.7-4.35c-0.66,0.33-1.31,0.66-1.97,0.99c0.63,4.11,1.27,8.22,2.04,13.85
		c-0.3,0.96-0.61,1.93-1.83,3.99c-0.59,5.18-1.53,10.34-1.69,15.53c-0.27,8.72,0.07,17.45-0.05,26.18c-0.09,7-2.13,13.56-4.09,20.27
		c-1.4,4.82-4.36,10.69,0.7,15.99c1.1,1.16,0.43,4.46-0.07,6.63c-2.15,9.29-1.9,18.54,1.01,27.52
		C609.15,720.53,611.93,723.13,614.27,727.39z"/>
	<path class="st22" d="M1451.99,619.99c4.21-7.04,4.21-7.04,11.89-7.53c0.24-4.89,0.49-9.94,0.44-15.66
		c1.71-0.84,3.73-1.01,6.92-1.03c1.78,0.12,2.26-0.13,2.63-0.61c18-1.2,36-2.41,55.31-2.83c5.16,4.34,4.61,9.03,4.87,13.66
		c0.94,16.67-2.91,33.67,3.41,50.01c1.23,3.19,1.7,6.68,2.12,10.2c-0.94,0.49-1.3,0.94-1.5,1.52c-7.42,0.19-14.84,0.38-23.28-0.29
		c-3.9-4.66-5.75-3.85-6.83,0.44c-0.88,0.17-1.76,0.34-3.39-0.41c-3.47-4.43-0.57-11.09-6.78-12.7c-2.78,5.02-5.33,9.64-7.88,14.25
		c-9.35,0.25-18.7,0.51-28.98-0.25c-0.95-4.66-1.04-8.3-0.98-11.95c0.07-4.18-2.55-4.87-5.89-4.75c-2.34-7.18-2.34-7.18,4.37-11.03
		c-3.11-7.99-3.11-7.99,5.09-12.71c0.12-1.27,0.42-2.86,0.39-4.44c-0.03-1.58-0.37-3.15-0.75-6.02c-3.6,0.74-6.6,1.35-10.39,2.06
		C1452,620,1451.99,619.99,1451.99,619.99z"/>
	<path class="st21" d="M468.33,922.73c-1,20.25-2.01,40.5-3.08,62.03c-2.52-1.68-4.42-2.63-5.94-4
		c-9.81-8.82-16.96-19.55-22.19-31.58c-2.42-5.56-3.02-11.1-1.94-17.39c14.54-84.5,28.76-169.06,43.07-253.6
		c1.16-6.88,2.43-13.74,4.41-21.34c1.48-0.78,2.19-0.83,2.91-0.89c-0.02,2.17-0.05,4.34-0.68,7.87c-0.59,3.21-0.58,5.06-0.56,6.91
		c-0.09,3.88-0.17,7.76-0.83,12.75c-0.36,2.21-0.16,3.31,0.05,4.41c-0.03,2.19-0.05,4.38-0.69,7.93c-0.59,3.19-0.57,5.01-0.56,6.84
		c-0.25,7.2-0.49,14.4-1.36,23.07c-0.65,3.89-0.67,6.29-0.69,8.7c-0.06,3.41-0.12,6.82-0.65,11.14c-0.48,0.91-0.68,1.67-0.68,1.67
		l0.65,0.5c0,2.28,0,4.56-0.61,8.21c-0.57,3.54-0.54,5.72-0.51,7.9c-0.09,2.9-0.18,5.81-1.09,9.83c-6.27,3.1-6.34,8.14-7.11,12.59
		c-1.73,10.05-3.21,20.14-4.75,30.22c-0.85,5.54-0.89,11.33-2.57,16.6c-5.86,18.41-5.75,37.47-7.07,56.39
		c-0.65,9.31,0.55,18.88-3.91,27.67c-2.49,4.91,1.77,9.72,0.99,13.9c-1.45,7.7,3.21,11.28,7.9,18.17c0.46-4.82,0.78-7.27,0.9-9.73
		c0.2-4.18,0.06-8.38,0.44-12.54c0.42-4.58,1.13-9.15,1.95-13.67c0.45-2.48,1.41-4.86,2.56-7.09c1.22,0.7,2.01,1.21,2.81,1.71
		c-0.01,2.18-0.02,4.36-0.63,7.91C468.3,919.04,468.32,920.88,468.33,922.73z"/>
	<path class="st19" d="M1539.99,666.02c-0.82-3.35-1.29-6.84-2.52-10.03c-6.32-16.34-2.46-33.33-3.41-50.01
		c-0.26-4.63,0.29-9.31-3.96-13.57c-0.39-0.7-0.45-0.73,0.13-0.6c1.63-0.25,2.67-0.64,3.72-1.02c2.83-0.19,5.65-0.38,9.63-0.11
		c2.22,0.1,3.29-0.26,4.36-0.62c2.67-0.16,5.33-0.32,9.38-0.28c2.46-0.18,3.54-0.56,4.62-0.94c2.83-0.19,5.66-0.38,9.49-0.65
		c0.36,3.57,0.67,6.63,0.77,11.18c0.21,3.18,0.64,4.86,1.06,6.55c0.16,0.94,0.32,1.87,0.01,3.82c-0.09,2.07,0.28,3.13,0.65,4.19
		c0.16,1.42,0.31,2.84,0.27,5.56c0.21,2.34,0.62,3.4,1.03,4.45c0.38,4.68,0.76,9.36,0.93,15.47c0.19,2.47,0.59,3.5,0.98,4.53
		c0.18,1.55,0.36,3.11,0.09,5.75c-0.07,2.14,0.31,3.2,0.69,4.25c0.18,2,0.35,3.99,0.41,7.68c0.01,2.3,0.15,2.92,0.28,3.53
		c-0.03,0.63-0.33,1.05-2.04,1.09c-2.92,0.2-4.71,0.58-6.51,0.96c-8.77,0.21-17.54,0.42-27.46,0.14
		C1541.06,666.44,1540.56,666.16,1539.99,666.02z"/>
	<path class="st20" d="M563.64,736.69c7.24-0.45,13.74-0.16,20.7-2.11c20.29-5.69,34.91,11.95,34.99,27.33
		c-3.01,1.89-6.3,3.4-8.91,5.69c-9.03,7.91-18.59,8.67-29.14,3.34c-2.52-1.27-5.63-1.37-8.42-2c1.33-13.55-1.88-18.42-16.51-24.96
		C558.2,741.45,560.69,739.3,563.64,736.69z"/>
	<path class="st20" d="M466.29,906c-0.73,2.43-1.69,4.81-2.14,7.29c-0.83,4.53-1.54,9.09-1.95,13.67
		c-0.38,4.16-0.24,8.36-0.44,12.54c-0.12,2.46-0.44,4.91-0.9,9.73c-4.69-6.89-9.35-10.47-7.9-18.17c0.78-4.18-3.48-8.99-0.99-13.9
		c4.46-8.79,3.26-18.37,3.91-27.67c1.32-18.93,1.21-37.98,7.07-56.39c1.68-5.27,1.72-11.06,2.57-16.6
		c1.54-10.08,3.02-20.17,4.75-30.22c0.77-4.45,0.83-9.5,6.93-11.74c-0.02,12.58-0.69,25.42-1.96,39.64
		c-2.64,10.65-6.11,19.7-4.93,29.47c0.67,5.53,1.29,11.07,1.93,16.61c0.06,0.81,0.12,1.63-0.48,3.4c-0.98,2.12-1.31,3.29-2.19,5
		c-0.85,5.46-1.14,10.38-2.03,15.85c-0.71,6.31-0.82,12.05-1.07,18.4C466.32,904.35,466.31,905.18,466.29,906z"/>
	<path class="st23" d="M1337.21,604.61c-1.85,9.11-3.83,10.7-12.89,10.11c-1.07,4.39-2.18,9-3.31,13.63
		c-10.03,0.61-6.36-9.13-9.64-14.01c-8.21,3.11-7.57,10.1-9.49,16.11c4.46,2.43,11.26,0.19,10.75,5.82
		c-2.67,4.06-5.64,6.73-6.1,9.79c-0.48,3.16,1.48,6.7,2.57,10.8c-2.19,0.8-4.78,1.76-7.82,2.87c-0.15-1.57-0.47-2.52-0.29-3.36
		c1.23-5.9,0.05-11.9,1.63-18.03c0.86-3.33-3.37-9.27-10.07-9.12c1.08-4.96,2.04-9.39,3.01-13.85c-1.84-2.02-3.59-3.94-5.44-6.53
		c3.98-1.21,8.07-1.74,12.56-1.76c-4.79,1.12-4.18,4.48-3.53,8.97c3.1-2.09,3.94-7.38,8.45-4.64c0.76-1.53,1.52-3.05,2.27-4.58
		C1318.68,606.04,1327.49,605.24,1337.21,604.61z"/>
	<path class="st24" d="M1352.87,672.11c-1.89-5.09-9.34-7.75-4.89-14.6c-2.68-1.04-4.71-1.82-7.39-2.86
		c0.16-5.23-1.91-10.5-0.19-16.31c0.5-1.68,1.57-6.51-4.06-7.43c-1.85-0.3-2.8-6.21-4.16-9.56c0.61-0.41,1.22-0.83,1.82-1.24
		c3.87,2.86,8.85,5,11.28,8.78c2.26,3.51,1.8,8.77,3.4,13.63c0.04-10.82,10.73-8.71,15.11-13.95c5.49,7.48,5.51,8.2,0.74,14.33
		c-0.8,1.03-2.17,2.18-2.11,3.21c0.39,6.85-5.1,10.26-8.95,15.57c4.64,0.23,8.75,0.43,13.58,0.67c-0.38,2.99-0.69,5.47-1,8.69
		C1361.95,671.97,1357.84,672.14,1352.87,672.11z M1353.38,643.02c-1.85,2.38-1.77,4.39,2.49,7.68
		C1355.3,646.87,1355.01,644.95,1353.38,643.02z"/>
	<path class="st21" d="M580,842c2.22,0.06,4.44,0.12,7.32,0.62c0.93,1,1.2,1.55,1.46,2.11c0.25-0.19,0.74-0.52,0.72-0.55
		c-0.44-0.76-0.94-1.49-1.43-2.23c-0.21-1.62-0.43-3.23-0.86-6.51c6.28,2.92,11.75,5.46,17.95,8.34c-2.07,3.77-4.73,7.74-6.47,12.08
		c-1.01,2.52-0.57,5.63-0.68,9.13c-13.06,2.39-25.39-0.09-37.45-7.15c0.41-1.34,1.36-2.18,2.63-3.33c-1.31-1.19-2.45-2.24-4.22-3.85
		c1.95-0.77,3.83-2.29,5.12-1.89c7.98,2.46,9.21,2.04,12.84-5.59c0.23-0.48,1.06-0.68,2.34-1.1C580,842,580,842,580,842z"/>
	<path class="st21" d="M774.04,739.96c0.7-3.71,0.83-7.66,2.25-11.06c1.66-3.97,3.42-6.9-1.99-9.55c-1.08-0.53-0.16-5.15-0.16-7.69
		c2.42-0.33,4.27-0.57,7.27-0.98c-1.96-2.34-3.22-3.85-5.53-6.62c2.86,0.68,4.28,1.01,6.32,1.36c3.56,2.08,6.38,4.33,9.45,6.19
		c12.99,7.87,8.3,25.04-4.03,29.61c-5.22,1.93-10.67,3.24-16.82,4.83c0.05-1.93,0.91-3.85,2.56-5.57c1.01,0.3,1.22,0.39,1.43,0.49
		C774.54,740.63,774.29,740.3,774.04,739.96z"/>
	<path class="st24" d="M1270.79,674.07c-1.8-3.49-2.8-6.81-4.47-12.32c1.69-1.27,4.48-3.37,7.59-5.7
		c-1.57-6.28-6.1-12.57,0.09-19.37c3.41-0.36,5.7-0.51,7.99-0.67c0.65,1.54,1.3,3.08,1.98,5.3c0.02,0.69,0,0.67-0.43,0.88
		c-0.96,0.6-1.31,1.12-1.7,2.28c-0.21,1.83-0.73,3.62-0.08,4.34c1.84,2,4.17,3.56,6.29,5.76c-0.01,0.47-0.06,1.41-0.5,1.63
		c-1,0.63-1.37,1.17-1.54,1.82c0.01-0.02,0.03,0.03-0.5-0.33c-2.18-1.48-3.84-2.61-5.68-4.07c-0.73-0.09-1.26,0.16-1.87,1.1
		c-0.9,3.63-0.82,16.49,0.04,19.09C1275.87,673.96,1273.72,674.1,1270.79,674.07z"/>
	<path class="st23" d="M1288,655.98c0,0,0.05-0.94,0.57-1.87c1.5-3.99,2.46-7.05,3.43-10.11c0,0,0.07-0.94,0.74-1.44
		c1.52-0.5,2.38-0.51,3.24-0.51c2.92,5.15-0.31,10.05-0.61,15.07c-0.17,2.97-0.03,5.96-0.03,10.12c-0.54,0.27-2.67,1.32-5.81,2.88
		c2.61,1.25,4.04,1.93,5.91,3.07c-3.09,0.69-6.62,0.92-10.98,0.35c-0.03-5.7,0.78-10.59,1.58-15.49c0,0-0.02-0.05,0.43-0.23
		C1287.46,657.2,1287.82,656.65,1288,655.98z"/>
	<path class="st24" d="M1453.64,652.63c3.77-0.7,6.4-0.01,6.33,4.18c-0.06,3.64,0.03,7.29,0.07,11.79
		c-4.23,1.14-8.47,1.42-13.36,1.51c0.68-4.2,1.88-8.26,3.42-12.19C1450.77,656.2,1452.14,654.76,1453.64,652.63z"/>
	<path class="st24" d="M656.85,862.42c-6.59,0.06-7.87-1.4-7.15-7.09c0.64-5.07,3.25-7.68,6.69-6.7c4.07,1.17,6.61,5.38,5.09,9.32
		C660.84,859.61,658.88,860.76,656.85,862.42z"/>
	<path class="st23" d="M472.61,859.56c-1-4.83-1.62-10.37-2.29-15.9c-1.18-9.77,2.29-18.82,4.72-28.65
		C474.61,829.25,473.79,844.05,472.61,859.56z"/>
	<path class="st21" d="M650.98,810.18c-2.51-1.76-4.75-3.92-6.98-6.08c-0.63,0.38-1.26,0.76-1.89,1.15c0.9,2.4,1.81,4.8,2.89,7.68
		c-2.01,0.66-4.1,1.35-6.6,2.56c-0.41,0.52-0.38,0.49-0.38,0.49c-0.91-0.31-1.81-0.63-2.72-0.94c3.67-5.52-0.64-13.92,6.97-18.44
		c3.76,2.18,7.98,4.08,8.55,10.5C651.47,808.53,651.5,809.15,650.98,810.18z"/>
	<path class="st19" d="M1285.52,657.7c-0.28,5.25-1.08,10.15-1.69,15.64c-1.32,0.7-2.84,0.8-5.09,0.69
		c-1.6-2.81-1.67-15.67-0.28-19.32c0.57-0.72,1.56-0.75,1.56-0.75C1281.68,655.09,1283.34,656.21,1285.52,657.7z"/>
	<path class="st23" d="M1326.82,673.32c1.92-3.71,4.66-7.23,7.7-11.15c4.59,0.71,7.17,3.44,7.46,9.17
		C1337.22,672.57,1332.43,673.03,1326.82,673.32z"/>
	<path class="st23" d="M485.84,655.22c-0.98,0.8-1.7,0.86-2.95,0.92c0.78-8.24,2.09-16.49,3.41-24.73c0.38,0.08,0.76,0.16,1.15,0.23
		C487.01,639.25,486.56,646.86,485.84,655.22z"/>
	<path class="st23" d="M679.66,829.23c-1.86-0.97-3.14-2.35-4.48-3.67c-2.41-2.37-2.04-5.08,0.15-6.89
		c1.15-0.95,3.84-0.89,5.44-0.27c2.83,1.09,3.88,3.53,2.28,6.44C682.26,826.26,681.17,827.51,679.66,829.23z"/>
	<path class="st24" d="M1490.63,669.2c1.85-4.81,4.4-9.42,7.18-14.45c6.21,1.6,3.31,8.27,6.12,12.53c-1.8,1.01-3.7,1.27-6.78,1.22
		c-1.89-0.32-2.49-0.08-2.99,0.4C1493.22,669.08,1492.27,669.24,1490.63,669.2z"/>
	<path class="st23" d="M664.97,833.2c2.84-0.05,5.14,0.33,10.04,1.14c-4.53,4.33-7.17,6.86-9.78,9.35
		C661.16,840.05,661.73,836.86,664.97,833.2z"/>
	<path class="st22" d="M1426.77,670.08c0.19-9.68,0.73-10.02,9.86-6.81c-0.83,1.78-1.66,3.55-2.55,5.96
		C1431.87,670,1429.72,670.13,1426.77,670.08z"/>
	<path class="st21" d="M466.6,902.32c0.11-5.74,0.23-11.49,1.45-17.26c1.45,2.47,1.78,4.96,2.12,7.46
		c-0.03,3.29-0.06,6.57-0.68,10.47C468.14,903.17,467.37,902.74,466.6,902.32z"/>
	<path class="st24" d="M470.51,891.74c-0.67-1.72-1.01-4.22-1.86-7.25c-0.22-5.45,0.08-10.36,1.12-15.42
		c1.11,0.35,1.58,0.7,2.16,0.9C471.57,876.97,471.21,883.97,470.51,891.74z"/>
	<path class="st19" d="M1309.14,606.64c-0.02,1.72-0.78,3.25-1.54,4.77c-4.51-2.74-5.35,2.55-8.45,4.64
		c-0.65-4.49-1.26-7.85,4.32-8.85C1305.39,606.69,1306.9,606.57,1309.14,606.64z"/>
	<path class="st23" d="M1371.3,602.31c-0.14,3.08-1.06,6.02-1.98,8.96c-0.7-0.03-1.4-0.05-2.1-0.08c-0.43-2.32-0.87-4.65-1.34-7.69
		C1367.41,602.58,1368.97,602.37,1371.3,602.31z"/>
	<path class="st23" d="M1361.24,602.68c-2.35,0.88-5.4,1.59-8.84,1.84C1354.85,603.54,1357.69,603.02,1361.24,602.68z"/>
	<path class="st24" d="M1508.72,668.05c0.33-4.47,2.19-5.28,5.19-0.83C1512.5,667.99,1510.98,668.11,1508.72,668.05z"/>
	<path class="st23" d="M1246.85,675.51c2.88-0.63,6.54-1.06,11.03-1.32C1255.02,674.81,1251.33,675.26,1246.85,675.51z"/>
	<path class="st23" d="M472.14,869.5c-0.8,0.27-1.27-0.08-1.82-0.98c0.13-1.57,0.46-2.73,1.28-4.26
		C472.18,865.6,472.27,867.32,472.14,869.5z"/>
	<path class="st24" d="M466.47,902.92c0.9-0.18,1.67,0.25,2.84,0.87c0.49,1.27,0.58,2.35,0.44,3.78c-1.02-0.15-1.82-0.66-3.04-1.36
		C466.31,905.18,466.32,904.35,466.47,902.92z"/>
	<path class="st24" d="M1410.89,671.28c2.25-0.55,5.25-0.9,9.05-1.14C1417.7,670.66,1414.67,671.07,1410.89,671.28z"/>
	<path class="st23" d="M1461.59,595.89c-0.71,0.55-1.78,0.9-3.16,0.87C1459.16,596.14,1460.2,595.92,1461.59,595.89z"/>
	<path class="st23" d="M1578.12,653.58c-0.57-0.69-0.96-1.75-0.96-3.11C1577.8,651.19,1578.05,652.2,1578.12,653.58z"/>
	<path class="st23" d="M1574.11,613.57c-0.56-0.7-0.93-1.76-0.92-3.11C1573.82,611.17,1574.06,612.19,1574.11,613.57z"/>
	<path class="st23" d="M1539.58,666.2c0.98-0.04,1.48,0.24,2.1,1.04c-0.83,0.55-1.86,0.73-3.24,0.7
		C1538.28,667.14,1538.65,666.69,1539.58,666.2z"/>
	<path class="st20" d="M478.81,763.32c-0.37-1.64-0.41-3.82-0.04-6.53C479.16,758.43,479.15,760.61,478.81,763.32z"/>
	<path class="st23" d="M480.6,733.81c-0.33-1.78-0.31-4.18,0.14-7.18C481.1,728.43,481.03,730.81,480.6,733.81z"/>
	<path class="st23" d="M1547.59,589.87c-0.71,0.56-1.78,0.91-3.15,0.88C1545.16,590.13,1546.19,589.9,1547.59,589.87z"/>
	<path class="st23" d="M483.79,687.57c-0.45-0.76-0.65-1.87-0.45-3.25C483.84,685.09,483.94,686.16,483.79,687.57z"/>
	<path class="st23" d="M468.68,922.13c-0.37-1.24-0.38-3.09,0.01-5.51C469.08,917.88,469.05,919.7,468.68,922.13z"/>
	<path class="st23" d="M1573.43,605.27c-0.6-1.03-1.02-2.72-1.29-5.07C1572.73,601.23,1573.17,602.93,1573.43,605.27z"/>
	<path class="st23" d="M1419.32,598.63c-1.01,0.59-2.66,1.01-4.95,1.3C1415.37,599.36,1417.03,598.91,1419.32,598.63z"/>
	<path class="st23" d="M1345.51,604.15c0.43,1.34,0.31,2.58-0.03,5.96c-0.94-2.78-1.24-3.66-1.55-5.09
		C1344.26,604.32,1344.6,604.18,1345.51,604.15z"/>
	<path class="st23" d="M484.68,670.13c-0.37-1.24-0.38-3.09,0.01-5.51C485.07,665.88,485.05,667.7,484.68,670.13z"/>
	<path class="st23" d="M1570.75,667.39c1.12-0.57,2.92-0.95,5.42-1.14C1575.06,666.82,1573.24,667.2,1570.75,667.39z"/>
	<path class="st23" d="M482.64,702.06c-0.35-1.22-0.37-3.05,0.01-5.44C483.03,697.86,483,699.66,482.64,702.06z"/>
	<path class="st23" d="M1575.39,623.38c-0.57-0.49-0.98-1.54-1.26-3.17C1574.68,620.69,1575.12,621.75,1575.39,623.38z"/>
	<path class="st23" d="M1533.39,590.61c-0.49,0.57-1.54,0.95-3.15,1.17C1530.73,591.22,1531.78,590.82,1533.39,590.61z"/>
	<path class="st23" d="M1447.37,596.56c-0.51,0.58-1.6,1-3.28,1.27C1444.59,597.26,1445.69,596.82,1447.37,596.56z"/>
	<path class="st21" d="M766.62,747.48c0.43-0.46,1.41-0.86,2.94-1.37C769.12,746.52,768.15,747.03,766.62,747.48z"/>
	<path class="st23" d="M1561.37,588.67c-0.51,0.56-1.59,0.94-3.24,1.18C1558.63,589.31,1559.72,588.9,1561.37,588.67z"/>
	<path class="st23" d="M1577.3,643.39c-0.55-0.48-0.95-1.51-1.22-3.1C1576.62,640.76,1577.04,641.8,1577.3,643.39z"/>
	<path class="st23" d="M1473.45,595c0.05,0.63-0.43,0.89-1.45,0.85C1471.91,595.22,1472.39,594.92,1473.45,595z"/>
	<path class="st23" d="M1578.92,664.72c-0.44-0.18-0.57-0.8-0.66-2.35C1578.62,662.38,1578.92,663.34,1578.92,664.72z"/>
	<path class="st20" d="M479.76,747.41c-0.18,0.34-0.83-0.16-0.83-0.16s0.2-0.76,0.48-0.83
		C479.68,746.34,479.95,747.07,479.76,747.41z"/>
	<path class="st23" d="M1431.49,598.04c-0.02,0.38-0.55,0.65-1.3,0.61C1430.32,598.21,1430.64,598.07,1431.49,598.04z"/>
	<path class="st23" d="M1494.65,669.1c0.02-0.68,0.62-0.91,1.81-0.81C1496.35,668.69,1495.74,668.99,1494.65,669.1z"/>
	<path class="st23" d="M1387.5,601.04c0.07,0.66-0.4,0.92-1.42,0.87C1385.96,601.25,1386.44,600.94,1387.5,601.04z"/>
	<path class="st21" d="M689.22,712.7c-0.06,0.33-0.67,0.64-1.79,1.1C687.51,713.52,688.1,713.1,689.22,712.7z"/>
	<path class="st24" d="M1396.54,671.44c-0.12-0.82,0.38-1,1.22-0.43C1397.94,671.26,1397.01,671.59,1396.54,671.44z"/>
	<path class="st24" d="M1174.05,631.96c-0.01-0.88-0.01-1.75,0.62-3.38c2.87-2.7,5.1-4.65,8.07-6.61c7.7-2.75,7.7-2.75,3.12-13.7
		c-1.47,2.9-2.69,5.31-4.4,7.38c-0.83-1.46-1.18-2.58-1.53-3.7c0.01-3.42,0.02-6.84,0.53-11.12c0.83-0.86,1.17-0.86,1.95-0.33
		c4.1,1.75,7.75,2.96,10.78,3.97c2.6-1.69,4.56-3.6,6.88-4.3c2.73-0.83,6.12,0.05,7.1-3.84c-1.67-2.42-5.19-5.76-4.58-6.93
		c3.38-6.43,1.53-12.79,1.21-19.22c-0.05-0.97,0.83-1.99,2.07-4.73c3.79,7.31,6.73,13,9.66,18.66c-1.93,1.5-3.57,2.77-6.7,5.19
		c9.1,1.16,12.53,5.74,12.77,12.77c-7.14,6.1-6.73-3.52-10.16-4.77c-5.68,8.23,5.31,13.87,2.51,21.83c4.04,1.75,8.1,3.5,12.88,5.56
		c0.69-4.71-2.1-9.1,3-10.72c2.35,1.31,4.7,2.62,6.81,3.8c1.13,9.6-1.57,18.59-6.66,27.33c-3.1-5.46-5.08-10.96-7.2-16.84
		c-2.79,1.26-5.03,2.27-6.01,2.7c-1.75-2.63-2.89-4.33-4.02-6.03c-1.12,0.75-2.25,1.5-3.37,2.24c0.87,4.03,2.11,8.02,2.5,12.09
		c0.44,4.52,0.1,9.11,0.1,13.16c-3.04,1.17-4.83,1.86-6.59,2.54c0.06,6.52,7.12,13.15-1.79,18.43c2.9,3.38,8.84,3.83,7.08,9.87
		c-6.43-4.84-6.43-4.84-11.01-0.57c2.8,6.9,5.43,13.4,8.14,20.09c1.62-0.18,3.91-0.45,6.21-0.71c-5.09,10.92-14.3,13.14-21.44,4.13
		c-7.52-9.5-14.38-19.72-14.7-32.79c-0.16-6.56-1.25-13.1-1.28-20.86C1184.19,643.62,1183.03,636.62,1174.05,631.96z
		 M1187.51,680.28c1.21-2.36,2.42-4.71,3.9-7.6C1183.45,674.24,1183,675.17,1187.51,680.28z M1196.35,613.26
		c-0.56-4.71-0.56-4.71-6.39-3.2C1192.06,611.4,1193.57,612.37,1196.35,613.26z M1198.64,692.92c-0.73,0.98-1.46,1.96-2.19,2.94
		c0.71,0.4,1.42,0.8,2.13,1.2C1198.88,695.98,1199.19,694.89,1198.64,692.92z M1192.42,689.24c0.01-0.8,0.02-1.6-0.02-2.4
		c0-0.02-0.91-0.03-0.91-0.01C1191.42,687.62,1191.42,688.42,1192.42,689.24z"/>
	<path class="st23" d="M1229.88,613.17c-5.14,2.45-2.35,6.84-3.04,11.55c-4.79-2.07-8.84-3.82-12.88-5.56
		c2.8-7.96-8.19-13.59-2.51-21.83c3.43,1.24,3.02,10.87,10.16,4.77c-0.23-7.03-3.67-11.61-12.77-12.77c3.13-2.42,4.77-3.7,6.7-5.19
		c-2.93-5.66-5.88-11.35-9.66-18.66c-1.23,2.73-2.12,3.75-2.07,4.73c0.32,6.43,2.17,12.79-1.21,19.22
		c-0.62,1.17,2.91,4.52,4.58,6.93c-0.97,3.89-4.37,3.01-7.1,3.84c-2.32,0.7-4.28,2.61-6.88,4.3c-3.03-1.01-6.69-2.23-10.76-4.73
		c1.46-5.39,4.26-9.34,4.96-13.64c0.67-4.15-0.83-8.66-1.42-13.33c3.36-0.26,5.48-0.42,8.01-0.62c0-4.38,0-8.28,0.69-12.2
		c2.59-1.61,4.49-3.21,7.65-5.88c1.72,0.5,5.13,1.5,9.2,2.69c-1.71,4.91-0.66,8.38,4.37,10.27c4.89,1.84,5.34,5.87,4.28,9.27
		c2.92,2.83,5.43,5.27,7.94,7.71c-0.03,2.76-0.06,5.52-0.45,9.3c-0.12,1.56,0.11,2.11,0.35,2.67c0,0,0,0.01,0.01,0.75
		c0.67,2.91,1.33,5.09,1.99,7.27C1229.97,606.78,1229.94,609.56,1229.88,613.17z"/>
	<path class="st23" d="M1214.74,701.99c-2.99,0.37-5.29,0.64-6.91,0.82c-2.71-6.69-5.35-13.18-8.14-20.09
		c4.58-4.27,4.58-4.27,11.01,0.57c1.76-6.03-4.18-6.49-7.08-9.87c8.9-5.28,1.85-11.91,1.79-18.43c1.76-0.68,3.55-1.37,6.59-2.54
		c0-4.06,0.34-8.65-0.1-13.16c-0.39-4.07-1.63-8.06-2.5-12.09c1.12-0.75,2.25-1.5,3.37-2.24c1.13,1.7,2.27,3.4,4.02,6.03
		c0.97-0.44,3.21-1.45,6.01-2.7c2.12,5.88,4.1,11.37,6.66,17.3c0.58,2.56,0.58,4.68-0.11,7.97c-5.38,5.57-2.59,11.3-3.39,16.4
		c0.43,10.3,0.63,20.56-6.67,29.05C1218.27,700.2,1216.74,700.94,1214.74,701.99z M1211.41,688.9c-0.22,1.16-0.44,2.31-0.67,3.47
		c0.82,0.01,1.64,0.02,2.46,0.04C1213,691.25,1212.81,690.08,1211.41,688.9z"/>
	<path class="st22" d="M1228.79,583.9c-3.2-2.32-5.71-4.75-8.63-7.59c1.07-3.4,0.61-7.43-4.28-9.27c-5.03-1.89-6.08-5.35-4.37-10.27
		c-4.06-1.19-7.48-2.18-9.2-2.69c-3.16,2.66-5.06,4.26-7.64,5.88c-0.68,0.02-0.66,0.04-0.66-0.63c-0.67-2.21-1.33-3.74-2-5.27
		c0.81-12.03,11.11-19.18,20.94-14.53c6.36,3.01,7.5,5.41,5.99,12.61c-0.2,0.96-0.41,1.91-0.56,2.88c-0.05,0.31,0.09,0.65,0.25,1.59
		c2.33,0,4.76,0,8.73,0c1.83,6.26,4.24,12.98,5.55,19.9C1233.32,578.65,1230.71,581.35,1228.79,583.9z"/>
	<path class="st22" d="M1193.99,559.99c-0.01,3.9-0.01,7.8-0.01,12.18c-2.53,0.2-4.65,0.36-8.01,0.62
		c0.59,4.68,2.09,9.18,1.42,13.33c-0.69,4.3-3.5,8.25-5.4,13.11c-0.36,0.75-0.69,0.76-1.53,0.76c-4.32-2.89,0.15-6.29-0.87-8.9
		c-4.25-10.84,3.99-19.39,4.95-29.24c0.18-1.86,2.72-3.48,4.89-4.89c2.01,1.23,3.3,2.15,4.58,3.06
		C1194.02,560.02,1194,560,1193.99,559.99z"/>
	<path class="st22" d="M1428.64,657.98c-2.24-0.52-3.72-1.04-6.15-1.87c3.07-7.64,5.94-14.77,9.01-22.39
		c6.98,2.69,3.08,8.49,5.02,12.14c1.67,0.54,3.41,1.09,4.93,1.59C1442.31,652.73,1437.45,656.76,1428.64,657.98z"/>
	<path class="st22" d="M1282.4,635.44c-2.69,0.72-4.99,0.87-7.85,0.77c-0.57-4.5-0.57-8.74-0.57-12.98
		c0.57-0.09,1.14-0.18,1.71-0.27c0.69,1.4,1.39,2.8,2.74,5.52c1.08-3.88,1.82-6.54,2.73-9.8c1.59,0.37,3.1,0.71,4.6,1.06
		c4.5,1.05,5.2,3.85,2.99,7.41C1287.03,629.89,1284.8,632.31,1282.4,635.44z"/>
	<path class="st22" d="M1174.03,632.86c9,3.76,10.15,10.76,2.58,18.82C1175.32,645.92,1174.67,639.84,1174.03,632.86z"/>
	<path class="st22" d="M1452,620.01c-0.49,4.66,4.17,10.41-2.69,13.86c-7.66-7.06-7.34-10.29,1.9-13.86
		C1451.99,619.99,1452,620,1452,620.01z"/>
	<path class="st24" d="M1346.01,616.01c1.91-1.2,3.83-2.41,6.21-3.9c1.46,1.24,3.37,2.2,4.25,3.75c2.08,3.63-0.17,6.36-4.6,6.09
		c-2.18-0.13-4.37,0-7.21-0.64c-0.67-1.54-0.68-2.43-0.69-3.32c0,0,0.01,0.01,0.45-0.2
		C1345.43,617.18,1345.81,616.66,1346.01,616.01z"/>
	<path class="st24" d="M1226.77,669.95c-0.01-5.08-2.79-10.81,2.57-15.59c1.19,4.22,1.88,8.82,2.04,13.42
		C1231.4,668.45,1228.9,669.21,1226.77,669.95z"/>
	<path class="st22" d="M1182,622c-2.23,1.95-4.46,3.9-7.33,5.94c-0.23-5.47-2.43-11.77,4.53-15.83c1.07,0.98,1.42,2.1,2.26,4.31
		C1181.98,619,1181.99,620.5,1182,622z"/>
	<path class="st22" d="M1291.32,643.94c-0.27,3.12-1.24,6.18-2.73,9.7c-2.65-1.28-4.98-2.83-6.82-4.84
		c-0.65-0.71-0.13-2.51,0.5-4.54c1.18-1.12,1.53-1.64,1.7-2.28c0,0,0.02,0.01,0.01,0C1286.19,642.6,1288.41,643.24,1291.32,643.94z"
		/>
	<path class="st22" d="M1230.71,603.87c-1.37-2.05-2.03-4.23-2.69-7.14C1234.85,597.28,1235.34,598.41,1230.71,603.87z"/>
	<path class="st22" d="M1457.97,609.25c-2.21-0.8-3.78-1.71-6.62-3.36c3.24-1.3,5.16-2.08,8.53-3.43
		C1459.32,605.42,1458.97,607.28,1457.97,609.25z"/>
	<path class="st22" d="M1295.72,641.43c-0.59,0.63-1.45,0.64-2.95,0.67c-1.82-1.35-3-2.73-4.47-4.45
		C1293.08,634.5,1293.86,638.52,1295.72,641.43z"/>
	<path class="st23" d="M1194.02,559.35c-1.28-0.24-2.57-1.15-3.94-2.71c0.14-1.27,0.53-1.77,1.51-2.36
		C1192.68,555.61,1193.35,557.14,1194.02,559.35z"/>
	<path class="st22" d="M1343.39,618.07c0.61,0.81,0.62,1.7,0.63,3.25c-1.04,0.21-2.09-0.24-3.14-0.7
		C1341.52,619.79,1342.15,618.97,1343.39,618.07z"/>
	<path class="st22" d="M1227.99,595.48c-0.23-0.05-0.47-0.6-0.36-1.33C1227.98,594.3,1227.99,594.64,1227.99,595.48z"/>
	<path class="st22" d="M1345.57,616.22c0.24,0.44-0.14,0.96-1.13,1.56C1344.19,617.34,1344.57,616.82,1345.57,616.22z"/>
	<path class="st25" d="M678.21,786.15c0.56-1.77,1.12-3.54,1.68-5.31c0.25,0.08,0.5,0.17,0.75,0.25c-0.58,1.42-1.17,2.83-2.14,4.62
		C678.1,786.07,678.21,786.15,678.21,786.15z"/>
	<path class="st21" d="M637.98,816.01c2.95,0.11,4.02,1.87,4,5.29c0.01,0.7,0.04,0.67,0.04,0.67c-3.02-0.05-4.01-1.87-3.99-5.29
		C638.03,815.97,638,816,637.98,816.01z"/>
	<path class="st21" d="M622.42,808.03c0.37-0.25,0.74-0.13,1.12-0.01C623.17,808.15,622.8,808.27,622.42,808.03z"/>
	<path class="st25" d="M675.73,787.79c-0.22,0.75-0.45,1.5-0.67,2.25c-0.04-0.22-0.18-0.47-0.11-0.65c0.11-0.27,0.35-0.49,0.71-1.13
		C675.83,787.86,675.73,787.79,675.73,787.79z"/>
	<path class="st21" d="M580,842c0.19-0.07,0.38-0.15,0.29-0.11C580,842,580,842,580,842z"/>
	<path class="st21" d="M641.98,822.01c0.23,0.28,0.48,0.56,0.73,0.83c-0.17-0.1-0.33-0.21-0.59-0.59
		C642.02,821.97,642,822,641.98,822.01z"/>
	<path class="st21" d="M616.93,804.86c0.15-0.1,0.19,0.31,0.19,0.31S616.79,804.97,616.93,804.86z"/>
	<path class="st25" d="M678.07,786.02c-0.44,0.53-0.85,1.11-1.79,1.73c-0.54,0.04-0.44,0.11-0.41,0.16
		c0.45-0.51,0.87-1.06,1.82-1.69C678.21,786.15,678.1,786.07,678.07,786.02z"/>
	<path class="st20" d="M613.99,599.73c-0.63-4.11-1.27-8.22-1.9-12.33c0.66-0.33,1.31-0.66,1.97-0.99c1.27,1.44,3.17,2.67,3.7,4.35
		c2.98,9.36,5.62,18.83,8.39,28.26c0.28,0.95,0.42,2.06,1.01,2.77c7.31,8.77,4.76,18.73,3.55,28.8c1.49,0.98,3.11,2.05,5.27,3.47
		c-3.29,5.99-1.19,12.97-4.62,19.62c-2.1,4.07-0.01,11.15,1.91,16.23c3.23,8.58,3.14,16.74,0.6,25.29
		c-1.02,3.45-1.15,7.15-1.89,10.7c-1.03,4.97-2.07,10.05-9.62,9.09c-1.2-4.18-1.93-7.45-1.96-10.73
		c-0.24-22.56-0.71-45.13-0.36-67.69C620.35,637.31,618.29,618.43,613.99,599.73z"/>
	<path class="st25" d="M614.06,600.49c4.22,17.94,6.28,36.82,5.98,56.07c-0.35,22.55,0.12,45.12,0.36,67.69
		c0.03,3.28,0.77,6.55,1.17,10.64c-5.29,0.55-6.99-2.86-7.31-9.11c-0.2-35.37-0.38-69.12-0.61-102.87
		c-0.04-6.26-0.28-12.51-0.43-18.77C613.53,603.17,613.83,602.21,614.06,600.49z"/>
	<path class="st20" d="M612.77,604.69c0.61,5.7,0.84,11.96,0.89,18.22c0.23,33.75,0.41,67.5,0.43,102.17
		c-2.16-1.94-4.93-4.55-5.96-7.72c-2.91-8.98-3.16-18.22-1.01-27.52c0.5-2.17,1.18-5.47,0.07-6.63c-5.06-5.3-2.1-11.17-0.7-15.99
		c1.95-6.71,4-13.27,4.09-20.27c0.12-8.73-0.22-17.46,0.05-26.18C610.78,615.58,611.72,610.41,612.77,604.69z"/>
	<path class="st19" d="M1354.05,643.02c0.96,1.93,1.25,3.85,1.83,7.67C1351.61,647.4,1351.53,645.39,1354.05,643.02z"/>
	<path class="st20" d="M588.03,841.98c0.52,0.71,1.02,1.44,1.47,2.2c0.02,0.03-0.47,0.36-0.72,0.55c-0.27-0.56-0.53-1.12-0.82-2.17
		C587.93,842.07,588,842,588.03,841.98z"/>
	<path class="st20" d="M774.02,739.98c0.27,0.31,0.52,0.65,0.77,0.98c-0.21-0.1-0.42-0.19-0.73-0.6
		C773.96,740.05,774,740,774.02,739.98z"/>
	<path class="st22" d="M1279.84,653.63c0.19,0.33-0.81,0.37-1.31,0.38C1278.58,653.78,1279.11,653.54,1279.84,653.63z"/>
	<path class="st19" d="M1283.54,642.19c0.26,0.44-0.09,0.96-1.05,1.56C1282.23,643.31,1282.58,642.79,1283.54,642.19z"/>
	<path class="st19" d="M1287.56,656.2c0.26,0.44-0.1,0.99-1.09,1.63C1286.19,657.37,1286.56,656.84,1287.56,656.2z"/>
	<path class="st23" d="M1182.75,621.98c-0.76-1.48-0.77-2.98-0.79-5.22c1.21-3.16,2.44-5.57,3.91-8.47
		C1190.44,619.24,1190.44,619.24,1182.75,621.98z"/>
	<path class="st23" d="M1186.99,680.7c-3.98-5.54-3.54-6.46,4.42-8.02C1189.93,675.57,1188.72,677.92,1186.99,680.7z"/>
	<path class="st23" d="M1195.72,613.3c-2.15-0.93-3.66-1.9-5.76-3.25C1195.79,608.55,1195.79,608.55,1195.72,613.3z"/>
	<path class="st23" d="M1199.06,693.36c0.12,1.53-0.18,2.61-0.48,3.7c-0.71-0.4-1.42-0.8-2.13-1.2
		C1197.18,694.88,1197.91,693.9,1199.06,693.36z"/>
	<path class="st23" d="M1191.91,689.23c-0.49-0.81-0.49-1.61-0.43-2.41c0-0.02,0.91-0.01,0.91,0.01
		C1192.44,687.63,1192.42,688.43,1191.91,689.23z"/>
	<path class="st24" d="M1212.01,688.91c0.8,1.17,0.99,2.34,1.19,3.5c-0.82-0.01-1.64-0.02-2.46-0.04
		C1210.96,691.22,1211.18,690.06,1212.01,688.91z"/>
</g>
<g>
	<path class="st26" d="M1181.23,1221.56c52.56-0.46,100.22,14.21,144.79,39.1c12.93,7.22,24.86,16.83,35.83,26.88
		c26.32,24.12,36.16,54.27,33.41,90.08c-2.84,37.05-18.74,67.63-41.25,95.6c-9.56,11.88-23.55,17.65-37.92,20.72
		c-55.01,11.74-110.11,23.11-165.31,33.95c-67.95,13.33-136.03,26-204.06,38.94c-3.27,0.62-6.67,0.83-9.8,1.86
		c-16.73,5.52-32.19,0.73-47.31-5.84c-10.97-4.77-19.73-12.46-25.76-22.84c-6.89-11.86-11.6-23.98-11.62-38.5
		c-0.06-40.64-1.52-81.29-2.7-121.93c-1.03-35.62-2.02-71.25-3.9-106.83c-0.67-12.63,4-22.08,12.54-30.12
		c15.4-14.52,33.66-23.75,54.53-27.36c4.47-0.77,9.22,0.2,13.85,0.27c17.99,0.27,35.99,0.35,53.97,0.79
		c37.62,0.94,75.24,2.13,112.86,3.08c17.99,0.45,35.98,0.52,53.97,0.92C1158.33,1220.59,1169.31,1221.13,1181.23,1221.56z
		 M1363.45,1341.82c-6.42-12.59-14.4-24.02-25.56-32.87c-4.67-3.7-9.62-6.82-16.16-6.89c-42.61-0.44-85.23-0.99-127.83-1.73
		c-26.29-0.46-52.56-1.38-78.85-1.96c-33.95-0.75-67.91-1.28-101.87-2.06c-19.97-0.46-39.92-1.41-59.89-1.74
		c-8.26-0.14-16.68-0.03-24.78,1.36c-15.15,2.61-26.2,10.6-30.6,26.29c-4.6,16.4-3.41,32.92-1.33,49.4
		c0.9,7.17,2.71,14.38,5.24,21.15c5.98,16.02,14.87,30.5,25.68,43.74c11.44,14.01,27.11,20.01,44.47,21.66
		c12.9,1.23,25.91,1.27,38.88,1.79c30.59,1.24,61.17,2.54,91.76,3.66c22.95,0.84,45.91,1.45,68.86,2.13
		c8.99,0.27,17.98,0.33,26.97,0.69c30.92,1.24,61.86,2.12,92.74,4.04c15.22,0.95,27.16-4.62,38.05-14.21
		c15.26-13.44,26.92-29.61,34.91-48.15C1378.14,1375.66,1378.43,1376.04,1363.45,1341.82z"/>
	<path class="st27" d="M1081.02,1050.31c-5.53,11.03-14.76,14.39-25.28,13.74c-20.56-1.26-35.69-11.76-45.48-29.64
		c-1.77-3.23-1.86-7.65-1.89-11.53c-0.44-67.59-0.71-135.18-1.1-202.77c-0.25-42.29-0.67-84.57-0.95-126.86
		c-0.09-13.49,6.89-22.84,20.21-25.27c10.97-2,21.03-5.59,30.64-11.2c7.23-4.22,16.68-2.74,21.71,3.67
		c3.8,4.85,7.75,10.71,8.62,16.57c4.88,32.85,1.57,64.73-12.79,95.23c-2.53,5.37-3.9,12.82-2.31,18.29
		c4.99,17.23,2.74,34.22,1.16,51.39c-0.48,5.23-1.13,10.61-0.48,15.76c1.98,15.65,1.95,31.14-0.57,46.75
		c-1.92,11.89-1.14,23.61,2.11,35.5c8.93,32.66,11.8,65.96,7.74,99.72C1081.96,1042.97,1081.7,1046.29,1081.02,1050.31z"/>
	<path class="st27" d="M1690.91,902.64c-19.8,7.97-33.23,21-37.31,41.65c-1.3,6.58-0.09,13.71,0.37,20.55
		c0.19,2.84,1.4,5.61,2.28,8.92c-1.75-0.27-2.82-0.16-3.57-0.6c-21.98-12.74-37.28-30.95-43.84-55.64
		c-1.66-6.24-1.69-13.36-0.63-19.77c2.46-14.91,14.15-25.79,34.48-24.81c18.72,0.9,34.3,9.71,47.96,22.07
		C1692.72,896.88,1696.67,899.24,1690.91,902.64z"/>
	<path class="st28" d="M1363.76,1342.5c14.67,33.54,14.39,33.15,0.38,65.62c-8,18.54-19.66,34.71-34.91,48.15
		c-10.89,9.59-22.82,15.16-38.05,14.21c-30.88-1.93-61.82-2.81-92.74-4.04c-8.98-0.36-17.98-0.42-26.97-0.69
		c-22.95-0.68-45.91-1.29-68.86-2.13c-30.59-1.12-61.18-2.42-91.76-3.66c-12.96-0.53-25.98-0.57-38.88-1.79
		c-17.36-1.65-33.03-7.64-44.47-21.66c-10.81-13.23-19.7-27.71-25.68-43.74c-2.53-6.77-4.33-13.99-5.24-21.15
		c-2.08-16.48-3.27-33,1.33-49.4c4.4-15.69,15.45-23.68,30.6-26.29c8.1-1.4,16.52-1.5,24.78-1.36c19.97,0.33,39.92,1.28,59.89,1.74
		c33.95,0.78,67.91,1.31,101.87,2.06c26.28,0.58,52.56,1.5,78.85,1.96c42.61,0.74,85.22,1.29,127.83,1.73
		c6.54,0.07,11.49,3.18,16.16,6.89C1349.05,1317.8,1357.03,1329.23,1363.76,1342.5z"/>
</g>
</svg>
