<?xml version="1.0" encoding="utf-8"?>
<!-- Generator: Adobe Adobe Illustrator 24.2.0, SVG Export Plug-In . SVG Version: 6.00 Build 0)  -->
<svg version="1.1" id="Layer_1" xmlns="http://www.w3.org/2000/svg" xmlns:xlink="http://www.w3.org/1999/xlink" x="0px" y="0px"
	 width="2048px" height="2732px" viewBox="0 0 2048 2732" style="enable-background:new 0 0 2048 2732;" xml:space="preserve">
<style type="text/css">
	.st0{fill:#6DCEBA;stroke:#000000;stroke-miterlimit:10;}
	.st1{fill:#FF999E;}
	.st2{fill:#601DD7;}
	.st3{fill:#F4DCDD;}
	.st4{fill:#DE8FF7;}
	.st5{fill:#621FD8;}
	.st6{fill:#82DCC0;}
	.st7{fill:#F3F7EA;}
	.st8{fill:#F4F8EA;}
	.st9{fill:#DAC851;}
	.st10{fill:#7C75DB;}
	.st11{fill:#090712;}
	.st12{fill:#3B99B5;}
	.st13{fill:#E8E8E8;}
	.st14{fill:#6221D5;}
</style>
<g id="Layer_2">
	<rect class="st0" width="2048" height="2732"/>
</g>
<g>
	<path class="st1" d="M1429.11,2732c-2.87-13.09-5.79-26.13-6.5-39.28c-1.04-19.27-0.27-38.64-0.67-57.96
		c-0.45-22.29-1.31-44.57-2.02-66.85c-0.62-19.29-1.3-38.57-1.92-57.85c-0.71-21.95-1.36-43.9-2.06-65.85
		c-0.64-20.28-1.31-40.57-1.96-60.85c-0.69-21.62-1.35-43.23-2.05-64.85c-0.64-19.95-1.32-39.9-1.96-59.85
		c-0.69-21.28-1.35-42.57-2.03-63.85c-0.65-20.28-1.32-40.57-1.97-60.85c-0.67-20.95-1.34-41.9-2.01-62.85
		c-0.66-20.62-1.21-41.24-2.05-61.85c-0.4-9.92-1.34-19.83-2.04-29.71c12.96-8.28,27.08-11.64,40.78-14.79
		c20.98-4.83,42.39-8.71,63.82-10.49c25.48-2.12,51.22-2.8,76.77-1.86c25.55,0.94,50.73,6.14,75.51,12.84
		c39.55,10.69,76.46,27.38,110.6,49.8c37.6,24.7,69.79,55.32,96.28,91.85c33.13,45.69,55.53,96.13,66.71,151.35
		c3.81,18.82,5.66,38.05,7.89,57.16c1.16,9.88,1.71,19.9,1.68,29.85c-0.14,58.87-11.74,115.5-33.38,170.21
		c-18.15,45.89-42.77,88.05-73.87,126.19c-26.58,32.6-56.6,61.89-90.86,86.58c-1.07,0.77-2.04,1.69-3.33,3.16
		C1635.5,2732,1532.78,2732,1429.11,2732z"/>
	<path class="st1" d="M939.04,2732c-11.75-4.99-22.44-10.26-33.39-14.92c-23.48-9.99-44.25-24.31-64.66-39.32
		c-21.59-15.88-40.26-34.95-58.16-54.62c-23.11-25.4-42.58-53.65-60-83.28c-34.37-58.46-57.5-121.29-72.16-187.28
		c-6.26-28.18-11.15-56.67-12.8-85.59c-1.27-22.2-3.67-44.43-3.33-66.62c0.46-29.82,2.53-59.6,6.91-89.26
		c5.18-34.98,13.06-69.19,24.33-102.62c17.82-52.86,43.23-101.79,79.65-144.23c42.07-49.02,93.52-83.91,157.65-97.46
		c25.8-5.45,51.98-7.2,78.29-3.2c6.49,0.99,13.02,1.7,20.66,2.68c0,7.13-0.16,13.39,0.03,19.63c0.68,22.27,1.4,44.53,2.26,66.79
		c1.26,32.54,2.65,65.07,3.99,97.6c0.65,15.6,1.34,31.2,1.99,46.8c0.69,16.6,1.34,33.2,2.03,49.8c0.64,15.27,1.34,30.53,1.97,45.8
		c1.36,33.2,2.67,66.4,4.03,99.6c0.61,14.94,1.35,29.87,1.97,44.8c1.37,33.2,2.67,66.4,4.04,99.6c0.61,14.94,1.19,29.87,2,44.8
		c1.08,20.21,2.44,40.41,3.52,60.62c0.35,6.65,0.1,13.33,0.3,19.99c0.67,21.27,1.35,42.53,2.17,63.79
		c1.28,33.53,2.65,67.07,4.01,100.6c0.62,15.27,1.31,30.54,1.98,45.8c0.66,14.94,1.12,29.88,2.14,44.79
		c0.31,4.5,2.21,8.89,3.53,14.11C1009.4,2732,974.69,2732,939.04,2732z"/>
	<path class="st1" d="M1308.26,2589.73c5.58,4.9,10.43,9.47,11.7,16.52c1.98,10.99-2.29,20.38-13.06,26.86
		c-12.06,7.25-25.36,8.91-39.22,7.6c-11.73-1.11-23.02-3.44-32.74-10.59c-2.66-1.96-5.3-4.05-7.56-6.44
		c-11.26-11.86-6.29-29.13,4.61-36.4c15.33-10.22,32.52-11.43,49.83-7.89C1290.73,2581.22,1299.07,2585.9,1308.26,2589.73z"/>
</g>
<g>
	<path class="st2" d="M1600.44,2372.78c-10.39,22.37-23.65,41.83-41.29,58.09c-22.57,20.8-48.55,32.86-79.93,34.13
		c-19.01,0.77-36.55-2.07-52.77-11.43c-9.33-5.39-15.83-13.97-20.23-23.93c-11.73-26.55-1.33-54.87,19.75-71.28
		c14.91-11.61,31.76-16.5,50.4-16.84c4.02-0.07,8.04-2.06,11.99-3.39c23.31-7.9,35.2-25.73,41.95-48.15
		c2.19-7.28,4.52-14.55,3.34-22.2c-3.76-24.27-13.89-44.69-34.96-58.91c-12.32-8.32-23.94-17.71-31.93-30.64
		c-1.7-2.75-3.4-5.83-3.91-8.95c-3.27-20.01-0.64-30.56,24.06-32.34c20.3-1.47,40.33,2.87,58.14,13.63
		c10.73,6.48,21.69,13.04,31.03,21.28c22.2,19.58,33.24,45.67,39.66,73.96c4.52,19.96,5.2,40.15,2.76,60.43
		C1615.74,2329.03,1609.9,2351.01,1600.44,2372.78z"/>
</g>
<g>
	<path class="st2" d="M1142.55,2379.53c20.24,30.84,11.64,61.46-15.74,81.45c-10.12,7.39-22.93,10.26-35.93,10.65
		c-32.87,0.98-62.06-7.88-88.12-28.77c-27.73-22.23-44.81-50.84-56.3-83.73c-10.53-30.14-11.77-60.98-9.19-92.4
		c1.18-14.32,4.09-28.02,9.25-41.44c9.71-25.25,24.71-46.09,48.01-60.46c4.42-2.73,8.71-5.68,13.18-8.32
		c17.72-10.47,37.36-13.47,57.45-14.16c4.51-0.16,9.28,0.88,13.59,2.37c14.93,5.19,19.75,17.38,13.01,31.68
		c-7.4,15.71-18.67,28.55-33.38,36.99c-35.46,20.35-46.25,70.17-25.27,103.04c8.75,13.72,20.39,24.38,36.22,29.38
		c4.32,1.36,9.14,1.2,13.75,1.57C1107.35,2349.33,1127.77,2358.43,1142.55,2379.53z"/>
</g>
<g>
	<path class="st1" d="M1684.34,754.1c0,1.46,0,2.93-0.05,5.77c0.5,3.01,1.05,4.63,1.6,6.25c0.05,2.1,0.09,4.2-0.09,7.28
		c0.03,1.51,0.28,2.05,0.53,2.58c-0.01,2.13-0.03,4.25-0.09,7.89c0.52,3.76,1.08,6.02,1.65,8.27c0,2.74,0.01,5.47-0.34,9.45
		c0.01,2.96,0.37,4.68,0.73,6.4c0,6.06,0,12.11-0.06,20c0.1,17.9,0.26,33.97,0.41,50.04c-0.13,6.06-0.25,12.12-0.84,19.5
		c-0.25,3.71-0.03,6.09,0.18,8.47c-0.04,2.1-0.09,4.2-0.58,7.67c-0.6,4.37-0.76,7.37-0.92,10.37c-0.08,2.13-0.15,4.25-0.51,7.34
		c-0.41,1.16-0.7,1.46-0.65,1.55c0.24,0.39,0.58,0.72,0.88,1.07c-0.13,2.73-0.25,5.46-0.78,9.44c-0.53,2.37-0.65,3.51-0.78,4.64
		c-0.14,2.11-0.27,4.23-0.7,7.3c-0.42,1.16-0.71,1.46-0.65,1.55c0.24,0.39,0.57,0.72,0.88,1.07c-0.11,1.47-0.22,2.93-0.76,5.63
		c-0.6,2.96-0.78,4.69-0.96,6.42c-3.56,25.64-6.43,51.4-10.81,76.9c-9.09,52.82-22.56,104.59-39.65,155.39
		c-12.85,38.19-27.43,75.73-45.05,112.02c-7.41,15.27-15.52,30.21-22.69,45.59c-8.3,17.79-15.81,35.94-23.88,53.84
		c-19.63,43.53-43.49,84.67-70.96,123.7c-24.43,34.71-52.16,66.58-83.4,95.31c-27.79,25.55-58.02,47.75-91.17,66.03
		c-26.12,14.4-53.16,26.3-82.53,31.78c-21.18,3.95-42.62,6.55-63.98,9.53c-10.84,1.51-21.75,2.51-34.24,3.76
		c-3.13,0.17-4.65,0.32-6.16,0.48c-0.86-0.01-1.71-0.02-3.9-0.11c-2.25,0.02-3.18,0.11-4.11,0.2c-2.73-0.07-5.46-0.13-9.54-0.27
		c-1.72-0.06-2.09-0.04-2.45-0.02c-36.29-3.67-71.31-12.46-104.81-26.82c-26.28-11.27-52.47-22.81-78.31-35.06
		c-33.28-15.77-63.18-36.73-90.92-60.96c-47.19-41.21-84.46-90.18-114.78-144.74c-31.06-55.88-52.99-115.31-69.28-176.97
		c-9.18-34.73-15.7-69.96-19.94-105.6c-2.55-21.4-4.14-42.92-6.15-64.39c-0.56-5.94-1.08-11.89-1.64-19.24
		c-0.08-1.74-0.13-2.08-0.19-2.42c0.01-0.86,0.02-1.72,0.01-3.78c-0.1-1.56-0.18-1.92-0.26-2.28c0.01-6.68,0.03-13.36,0.1-21.87
		c-0.07-13.24-0.2-24.65-0.32-36.06c0.11-7.34,0.22-14.69,0.43-23.48c0.06-1.81,0.03-2.18,0-2.54c0.03-0.86,0.07-1.73,0.16-3.75
		c0.04-1.5,0.02-1.84,0-2.18c0.04-2.74,0.09-5.49,0.57-9.6c0.59-3.73,0.74-6.1,0.9-8.46c0.13-3.39,0.26-6.79,0.48-11.55
		c0.07-1.71,0.05-2.06,0.03-2.41c2.4-22.1,4.04-44.32,7.4-66.28c4.71-30.84,11.48-61.37,15.96-92.24
		c6.64-45.79,16.2-90.9,28.7-135.4c12.79-45.55,28.72-90,48.3-133.11c12.27-27.01,24.95-53.81,42.19-78.1
		c6.35-8.94,13.01-17.69,20.07-26.07c20.92-24.81,44.02-47.49,71.42-64.97c14.3-9.12,25.77-20.87,37.74-32.38
		c13.92-13.39,27.27-27.52,42.27-39.59c17.34-13.96,35.89-26.5,54.46-38.84c46.98-31.21,97.63-54.38,152.6-67.64
		c19.71-4.75,39.55-8.88,59.91-9.58c18.94-0.65,37.98-2.53,56.81-1.33c38.97,2.5,77.05,10.15,113.36,25.16
		c12.92,5.34,26.39,9.77,38.43,16.67c18.74,10.74,37.17,22.3,54.5,35.16c58.13,43.12,103.11,97.83,138.94,160.42
		c36.51,63.79,61.5,132.05,78.02,203.42c7.78,33.62,14.7,67.51,17.18,102.09c0.31,4.29,1.15,8.54,1.79,14.22
		C1684.18,753.37,1684.26,753.73,1684.34,754.1z"/>
	<path class="st3" d="M1689.09,877.36c-0.62-15.4-0.77-31.47-0.79-48.47c0.65,0.24,1.61,1.42,1.6,2.59
		C1689.87,846.55,1689.69,861.62,1689.09,877.36z"/>
	<path class="st3" d="M600.98,1044.62c0.6,10.74,0.73,22.15,0.71,34.49c-0.67-3.83-1.54-8.58-1.64-13.34
		C599.9,1058.95,600.32,1052.12,600.98,1044.62z"/>
	<path class="st3" d="M1688.48,905.59c-0.72-1.96-0.93-4.34-0.64-7.15C1688.55,900.41,1688.76,902.79,1688.48,905.59z"/>
	<path class="st3" d="M1688.72,807.58c-0.8-1.31-1.16-3.03-1.1-5.17C1688.41,803.72,1688.78,805.45,1688.72,807.58z"/>
	<path class="st3" d="M1686.95,923.48c-0.31-2.43-0.15-5.43,0.48-9.01C1687.74,916.9,1687.58,919.9,1686.95,923.48z"/>
	<path class="st3" d="M1687.96,791.41c-0.64-1.52-1.21-3.77-1.63-6.75C1686.99,786.19,1687.52,788.44,1687.96,791.41z"/>
	<path class="st3" d="M603.04,994.48c0.3,1.83,0.15,4.19-0.47,7.1C602.27,999.76,602.43,997.39,603.04,994.48z"/>
	<path class="st3" d="M1108.36,1744.78c1.09-0.57,2.6-0.73,4.89-0.84C1112.27,1744.39,1110.53,1744.79,1108.36,1744.78z"/>
	<path class="st3" d="M1682.91,969.58c-0.27-1.25-0.09-2.98,0.53-5.2C1683.71,965.62,1683.54,967.36,1682.91,969.58z"/>
	<path class="st3" d="M1685.97,765.45c-0.63-0.96-1.17-2.58-1.57-4.86C1685.05,761.55,1685.55,763.17,1685.97,765.45z"/>
	<path class="st3" d="M1684.48,957.83c-0.6-0.18-0.94-0.51-1.18-0.9c-0.05-0.09,0.24-0.39,0.7-0.76c0.6,0.19,0.91,0.51,1.11,0.9
		C1685.16,957.19,1684.9,957.46,1684.48,957.83z"/>
	<path class="st3" d="M1685.04,947.65c-0.26-0.7-0.14-1.84,0.41-3.39C1685.72,944.97,1685.57,946.1,1685.04,947.65z"/>
	<path class="st3" d="M1686.51,933.83c-0.6-0.18-0.94-0.5-1.18-0.89c-0.05-0.09,0.24-0.39,0.7-0.76c0.6,0.19,0.9,0.51,1.1,0.9
		C1687.19,933.19,1686.92,933.46,1686.51,933.83z"/>
	<path class="st3" d="M1686.61,775.78c-0.53-0.33-0.78-0.87-0.72-1.6C1686.43,774.52,1686.66,775.05,1686.61,775.78z"/>
	<path class="st3" d="M1100.26,1744.82c0.59-0.47,1.51-0.56,3.13-0.51C1102.92,1744.7,1101.76,1744.94,1100.26,1744.82z"/>
	<path class="st3" d="M603.68,980.17c0.35,0.17,0.37,0.52,0.3,1.38c-0.4,0.15-0.74-0.19-0.98-0.59
		C602.93,980.86,603.22,980.55,603.68,980.17z"/>
	<path class="st3" d="M601.7,1012.18c0.35,0.17,0.37,0.51,0.31,1.36c-0.4,0.15-0.75-0.18-1-0.58
		C600.96,1012.87,601.24,1012.56,601.7,1012.18z"/>
	<path class="st3" d="M601.57,1018.13c0.34,0.17,0.38,0.53,0.29,1.43c-0.4,0.16-0.72-0.2-0.93-0.61
		C600.87,1018.82,601.14,1018.54,601.57,1018.13z"/>
	<path class="st3" d="M601.4,1102.13c0.36,0.13,0.44,0.49,0.48,1.4C601.59,1103.51,601.35,1102.94,601.4,1102.13z"/>
	<path class="st3" d="M601.61,1108.15c0.37,0.14,0.42,0.48,0.45,1.33C601.78,1109.45,601.54,1108.9,601.61,1108.15z"/>
	<path class="st3" d="M1088.12,1744.46c0.17-0.33,0.54-0.35,1.44-0.24C1089.51,1744.49,1088.91,1744.63,1088.12,1744.46z"/>
	<path class="st3" d="M1684.62,753.86c-0.36-0.13-0.44-0.49-0.47-1.4C1684.44,752.48,1684.67,753.06,1684.62,753.86z"/>
</g>
<g>
	<path class="st4" d="M1692,1624.28c25.8,6.95,49.39,16.66,67.15,36.48c17.41,19.43,29.38,41.84,33.65,67.86
		c3.81,23.14,5.07,46.36-2.74,68.94c-10.94,31.6-29.14,58.41-56.78,77.6c-17.37,12.06-37.08,18.73-58.47,21.27
		c-10.84,1.29-21.17-0.88-31.74-0.58c-10.54,0.3-11.67,0.89-14.12,11.37c-11.76,50.15-23.32,100.34-35.2,150.46
		c-3.98,16.78-1.52,15.52-18.64,11.45c-9.38-2.23-18.61-5.16-28.06-6.94c-5.53-1.05-7.37-3.67-6.96-8.8c0.13-1.66,0.02-3.33,0.02-5
		c0-84.33,0.09-168.65-0.09-252.98c-0.03-14.59-2.41-29.23-1.71-43.75c1.53-31.88,13.09-60.23,33.86-84.56
		c20.68-24.23,46.75-39.46,78.4-43.72c11.02-1.48,22.45-0.03,33.69,0.16C1686.57,1623.58,1688.88,1623.98,1692,1624.28z
		 M1745.74,1705.38c-12.98-21.46-33.57-30.22-57.08-30.93c-41.65-1.25-75.85,15.42-100.58,48.95
		c-18.52,25.1-24.33,52.79-10.09,82.44c0.98,2.05,1.67,4.36,1.95,6.61c1.54,12.49,2.82,25.02,4.41,37.51
		c0.26,2.07,1.59,4.01,2.58,6.39c2.89-0.95,5.07-1.59,7.2-2.39c27.21-10.25,53.28-22.81,82.84-27.3
		c29.86-4.54,53.98-21.49,70.9-47.4c7.48-11.46,11.36-24.27,11.34-37.6C1759.18,1728.89,1754.16,1717.07,1745.74,1705.38z"/>
	<path class="st5" d="M836.46,2492.29c1.07,21.17,2.14,41.36,3.23,62.05c49.33,22.81,98.15,45.39,147.98,68.44
		c-2.09,1.76-3.3,3.63-4.79,3.89c-10.44,1.81-20.72,4.35-31.61,2.64c-10.81-1.69-21.82-2.03-32.74-3.04
		c-2.31-0.21-4.76-0.35-6.85-1.22c-21.48-8.87-44.09-15.79-62.27-30.94c-7.8-6.5-15.1-14.36-20.4-22.97
		c-15.33-24.91-24.81-52.22-29.15-81.19c-1.18-7.87-1.65-15.86-2.17-23.81c-0.17-2.61-0.11-5.6,1-7.85
		c6.45-13.2,15.81-23.67,29.58-29.6c0.77-0.33,1.88,0.12,4.05,0.33C834.36,2449.7,835.85,2470.47,836.46,2492.29z"/>
	<path class="st4" d="M899.7,2577.28c-0.92-2.39-1.97-4.74-1.34-6.48c5.94-16.52,12.26-32.91,18.25-49.42
		c2.21-6.08,7.11-5.56,11.54-4.75c14.73,2.7,29.02,6.72,41.66,15.31c5.81,3.95,11.24,8.03,14.88,14.28
		c5.78,9.94,4.35,18.28-5.1,25.14c-11.66,8.47-25.16,11.44-39.24,12.55C926.5,2585.01,913.46,2581.07,899.7,2577.28z"/>
	<path class="st4" d="M132.63,75.62c6.73,3.14,6.84,9.82,8.74,15.66C136.3,87.35,132.69,82.65,132.63,75.62z"/>
</g>
<g>
	<path class="st6" d="M1844.57,1084.5c-17.14,38.08-42.04,68.8-76.95,90.54c-26.96,16.79-56.39,26.05-88.56,27.36
		c-53.97,2.2-100.6-16.11-142.14-48.94c-48.33-38.2-79.81-87.84-96.65-146.84c-8.72-30.55-13.56-61.73-11.55-93.61
		c3.28-52.02,17.94-100.11,51.14-141.21c17.94-22.2,41.73-36.95,67.25-48.92c15.38-7.21,31.44-12.28,48.33-15.26
		c34.06-6,67-2.03,98.94,10.06c56.44,21.37,98.09,60.2,129.08,111.31c23.36,38.52,36.76,80.51,41.36,124.97
		c2,19.35,0.35,39.24-1.22,58.75C1861.61,1037.4,1854.58,1061.03,1844.57,1084.5z M1608.95,876.13
		c-6.66,8.7-10.08,18.55-10.93,29.46c-3.57,45.61,37.43,87.51,74.55,89.05c17.46,0.73,32.04-4.2,43.02-18.11
		c11.94-15.12,12.86-32.65,9.18-50.35c-5.61-26.98-21.66-46.85-45.52-60.09C1656.6,853.52,1627.16,854.24,1608.95,876.13z"/>
</g>
<g>
	<path class="st7" d="M1333.85,1239.95c13.77,2.26,26.07,6.57,36.71,14.02c11.86,8.3,12.73,21.83,10.93,34.27
		c-1.57,10.87,0.36,21.08,1.66,31.38c1.14,9.06-1.23,17.04-3.88,25.15c-1.23,3.76-4.7,5.48-8.81,5.21
		c-8.25-0.54-16.49-1.35-24.75-1.61c-10.65-0.34-21.32-0.5-31.97-0.32c-14.98,0.26-29.72-1.46-44.5-3.69
		c-13.07-1.97-26.31-2.76-39.43-4.4c-24.92-3.12-49.82-6.38-74.7-9.78c-23.58-3.22-47.08-6.99-70.69-9.95
		c-15.42-1.94-30.98-2.75-46.45-4.29c-10.18-1.02-20.32-2.53-30.5-3.63c-3.29-0.36-6.76-0.72-9.96-0.09
		c-14.54,2.83-28.93,0.92-43.51,0.37c-16.12-0.62-31.45-4.69-47.09-7.13c-9.61-1.5-18.66-6.63-28.08-10.18
		c-2.19-9.37,1.35-17.46,4.43-25.31c3.26-8.29,7.7-16.13,11.82-24.07c4.33-8.34,11.18-14.03,19.91-17.24
		c22.52-8.26,45.53-11.1,69.45-7.15c8.44,1.4,17.28,0.41,25.94,0.45c16.92,0.08,33.92-1.02,50.49,3.77
		c1.25,0.36,2.65,0.19,3.98,0.24c20.57,0.68,41.16,1.11,61.71,2.15c8.88,0.45,17.7,2.14,26.55,3.26c1.64,0.21,3.29,0.47,4.94,0.55
		c15.24,0.71,30.6,0.43,45.7,2.29c26.91,3.32,53.85,0.6,80.73,1.89C1300.68,1236.89,1316.82,1238.63,1333.85,1239.95z"/>
</g>
<g>
	<path class="st8" d="M1396.37,1028.51c-6.35,3.72-12.07,7.12-17.93,10.24c-14.66,7.81-30.42,11.1-46.94,11.34
		c-4.27,0.06-8.53,0.93-12.8,1.34c-2.64,0.25-5.33,0.69-7.94,0.43c-11.51-1.13-23.05-2.14-34.49-3.83
		c-16.02-2.37-32.13-4.54-47.89-8.14c-39.28-8.98-76.97-22.58-113.68-39.33c-30.43-13.89-58.62-31.14-84.57-52.01
		c-8.46-6.81-15.43-15.54-22.71-23.72c-8.82-9.9-17.75-19.77-25.74-30.32c-10-13.2-20.02-26.55-28.31-40.84
		c-7.11-12.25-12.25-25.73-17.43-38.99c-5.42-13.85-10.72-27.86-14.48-42.21c-3.84-14.66-6.57-29.74-8.24-44.81
		c-1.21-10.94,0.16-22.15,0.27-33.24c0.04-3.54-0.68-7.13-0.34-10.62c1.59-16.18,11.83-27.77,21.63-39.46
		c3.17-3.79,6.84-7.48,10.98-10.08c14.69-9.21,25.82-22.03,35.73-35.73c13.82-19.11,26.62-39,36.43-60.56
		c6.18-13.6,12.43-27.23,17.42-41.29c5.74-16.16,11.18-32.57,14.86-49.28c7.91-35.89,25.29-66.35,49.03-93.94
		c15.48-17.99,32.15-34.23,51.77-47.79c22.08-15.26,46.7-23.69,72.34-29.4c14.78-3.29,30.09-4.19,45.13-6.33
		c19.06-2.71,38.23-2.22,57.35-1.8c15.06,0.33,30.01,2.07,44.99,4.71c17.84,3.14,30.84,13.12,43.39,24.45
		c16.89,15.25,29.22,34.09,42.3,52.59c18.13,25.64,24.63,54.89,31.17,84.24c4.66,20.93,7.26,42.35,10.08,63.64
		c1.52,11.47,1.1,23.19,2.35,34.71c3.91,36.2,1.44,72.49,1.71,108.73c0.18,24.9-1.09,49.82-1.89,74.73
		c-0.46,14.25-1.43,28.49-1.89,42.75c-0.79,24.46-0.78,48.96-2.19,73.39c-1.3,22.64-7.2,44.42-15.65,65.49
		c-11.16,27.83-24.12,54.8-40.22,80.1c-9.97,15.67-20.66,30.95-34.43,43.69C1402.9,1023.83,1399.82,1025.84,1396.37,1028.51z"/>
	<path class="st8" d="M809.58,574.48c9.99,15.03,17.77,30.33,22.55,47.05c3.64,12.72,7.74,25.34,10.54,38.24
		c1.64,7.58,1.17,15.62,1.61,23.45c0.59,10.58,1.46,21.15,1.66,31.73c0.5,26.2-4.27,51.64-10.69,76.98
		c-7.55,29.77-18.57,58.06-32.88,85.1c-13.39,25.3-28.96,49.17-48.57,70.22c-6.56,7.04-12.56,14.64-19.49,21.28
		c-22.88,21.94-48.1,40.8-76.75,54.56c-20.66,9.92-42.36,17.47-65.31,19.56c-17.87,1.63-35.71,1.52-53.76-1.85
		c-32.75-6.11-59.72-21.83-82.01-45.67c-12.67-13.56-23.74-28.66-30.51-46.31c-4.6-12.01-9.94-23.84-13.26-36.21
		c-4.13-15.4-7.29-31.11-7.13-47.31c0.09-8.9-1.46-17.82-1.47-26.73c-0.01-13.77,0.65-27.49,3.49-41.11
		c2.22-10.65,2.15-21.82,4.79-32.33c4.18-16.65,8.96-33.26,14.97-49.33c9.69-25.87,22.37-50.42,37.73-73.41
		c12.16-18.21,25.69-35.42,40.8-51.35c15.14-15.96,31.12-30.95,49.47-43.16c19.66-13.08,40.24-24.46,62.71-32.18
		c27.07-9.29,55.13-11.93,83.22-9.21c20.06,1.94,38.96,9.32,57.07,19.25C779.81,537.5,794.8,555.13,809.58,574.48z"/>
</g>
<g>
	<path class="st9" d="M1019.99,934.02c5.64,1.93,11.3,3.78,16.91,5.79c41.58,14.85,83.92,25.47,128.39,27.47
		c32.15,1.44,63.81-1.48,95.55-5.47c13.86-1.74,27.33-4.46,40.8-8.56c20.27-6.17,35.63-19.05,50.9-32.44
		c21.44-18.79,36.99-41.74,47.39-68.26c10.57-26.96,21.31-53.86,31.93-80.8c6.35-16.1,13.36-31.98,18.75-48.39
		c8.71-26.53,17.89-53.06,24.04-80.23c10.35-45.75,19.05-91.93,18.43-139.23c-0.13-9.58-0.02-19.17-0.02-26.52
		c4.55,21.48,5.9,45.58,6.68,69.74c0.75,23.27,2.03,46.55,1.93,69.81c-0.08,18.24-2.05,36.46-2.9,54.71
		c-0.45,9.6-0.12,19.24-0.43,28.85c-0.7,21.58-1.82,43.16-2.3,64.74c-0.44,19.97,0.3,39.98-0.56,59.92
		c-0.69,15.87-3.08,31.5-7.86,46.98c-6.3,20.44-13.91,40.2-23.41,59.28c-5.18,10.4-10.15,21.01-16.4,30.76
		c-9.47,14.79-19.18,29.56-30.22,43.18c-16.71,20.63-37.48,35.65-64.45,40.49c-21.76,3.91-43.4,4.52-65.55,2.44
		c-34.32-3.23-67.88-10.09-100.28-20.96c-30.49-10.23-60.69-21.48-89.6-36.3c-20.03-10.27-38.49-22.3-56.08-35.92
		c-7.58-5.87-13.97-13.28-21.27-20.54C1020,934,1019.99,934.02,1019.99,934.02z"/>
	<path class="st9" d="M831.23,606.76c27.6,40.88,40.87,85.66,42.76,133.94c3.08,78.85-19.5,149.92-66.49,213.05
		c-31.47,42.28-71.18,74.52-120.82,93.45c-28.33,10.81-57.6,14.64-88.13,13.36c-30.64-1.29-57.78-11.52-84.07-25.7
		c-2.48-1.34-4.66-3.24-6.68-5.59c23.28,3.66,46.54,4.02,69.67,2.93c29.46-1.39,57.3-8.65,83.89-22.78
		c42.55-22.59,76.19-54.89,104.63-92.56c28.95-38.35,48.35-81.8,60.14-128.55c9.46-37.49,12.49-75.55,9.71-113.97
		c-1.73-23.92-6.09-47.52-13.65-70.42c-1.1-3.35-1.99-6.77-1.69-10.84C823.92,597.46,827.34,601.83,831.23,606.76z"/>
	<path class="st9" d="M1480.96,407.35c1.49,7.59,2.81,14.66,4.14,21.73c-0.07,0.03-0.14,0.05-0.22,0.08
		c-1.85-7.3-3.7-14.61-5.51-21.92c-0.05-0.21,0.28-0.7,0.52-0.76C1480.15,406.41,1480.49,406.69,1480.96,407.35z"/>
	<path class="st9" d="M1020.01,934c0.01,0-0.22,0.07-0.12,0.05C1019.99,934.02,1020,934,1020.01,934z"/>
</g>
<g>
	<path class="st10" d="M663.14,2026.67c-49.53-13.73-98.22-27.41-147.07-40.51c-9.54-2.56-19.66-3.22-29.58-4.04
		c-28.86-2.39-57.75-4.4-86.63-6.62c-2.82-0.22-5.61-0.9-8.4-1.36c1.56-9.2,129.82-243.72,138.3-252.85
		c2.01,2.58,4.29,4.77,5.67,7.43c4.91,9.45,9.51,19.07,14.25,28.62c1.31,2.65,2.68,5.27,4.54,8.92c2.85-2.55,5.17-4.66,7.53-6.72
		c7.32-6.41,11.31-5.93,15.04,2.87c10.51,24.82,20.82,49.74,30.84,74.76c24.01,59.94,47.83,119.96,71.64,179.97
		c1.4,3.53,2.07,7.35,3.08,11.04C675.12,2031.54,669.64,2028.02,663.14,2026.67z"/>
	<path class="st10" d="M1434.89,1765.12c-13.37,29.5-26.51,58.28-39.32,87.2c-2.37,5.35-5.46,7.27-11.36,7.29
		c-21.96,0.06-43.91,0.73-65.87,1.15c-4,0.08-8.01,0.28-11.99,0.03c-10.13-0.64-14.74-7.57-9.9-16.35
		c4.29-7.8,9.48-15.42,15.63-21.82c29.93-31.16,63.17-58.17,101.83-77.97c4.39-2.25,9.24-3.95,14.08-4.88
		c9.36-1.8,14.01,3.23,11.83,12.6C1438.84,1756.52,1436.79,1760.42,1434.89,1765.12z"/>
</g>
<g>
	<path class="st11" d="M1225.27,699.25c-3.63,3.97-6.46,7.75-9.94,10.8c-8.25,7.26-17.28,7.46-24.9-0.38
		c-5.47-5.63-9.78-12.48-14.07-19.13c-2.3-3.55-3.48-7.82-5.14-11.73c-8.67,0-16.9,0-25.33,0c-7.72-11.23-5.52-51.45,4.3-67.44
		c5.7,1.25,11.7,2.56,18.02,3.95c1.95-11.34,3.63-22.09,5.68-32.76c2.8-14.55,8.94-27.96,16.49-40.45
		c3.6-5.95,10.15-10.28,15.82-14.77c3.98-3.15,8.72-2.23,11.41,1.89c5.06,7.72,10.33,15.52,13.87,23.98
		c7.49,17.93,10.91,36.9,11.07,57.66c109.82-6.64,219.04-15.42,329.04-22.53c2.57,26.14,5.06,51.56,7.7,78.48
		c-115.11,2.88-229.45,5.73-343.39,8.58C1232.29,683.73,1229.03,691.23,1225.27,699.25z"/>
	<path class="st11" d="M734.36,757.86c-7.94,1.69-15.08,3.21-22.32,4.76c-16.12,23.86-37.7,42.75-59.93,61.8
		c1.41-16.42,6.7-32.29-1.87-47.77c0.39,2.58,0.88,5.16,1.13,7.76c0.29,2.98,0.44,5.98,0.5,8.98c0.51,25.4-6.91,47.22-28.69,62.31
		c-26.22,18.16-63.74,12.2-79.07-15.46c-9.15-16.5-12.52-34.31-12.4-52.82c0.09-14.51,8.75-25.58,17.03-36.42
		c3.54-4.63,8.59-8.09,12.65-12.37c1.45-1.53,2.4-3.81,2.93-5.9c8.58-34.17,17.16-68.34,25.54-102.55
		c7.11-29.02,13.98-58.1,21.46-87.15c1.56,11.99,5.92,22.94,10.12,34.03c11.53,30.42,21.43,61.31,27.07,93.52
		c2.91,16.61,7.81,32.87,12.07,50.34c4.33-1.03,8.58-1.62,12.52-3.06c26.97-9.84,54.95-14.64,83.36-17.9
		c15.34-1.76,27.26,3.92,37.88,13.9c6.58,6.18,6.9,15.83,0.34,22.24c-2.72,2.66-6.5,4.66-10.16,5.87
		C768.15,747.43,751.63,752.5,734.36,757.86z M675.91,787.37c1.41-1.36,2.81-2.73,5.78-5.6c-3.48,2.62-5.18,3.9-6.74,6.56
		c-0.13,0.79-0.26,1.59-0.4,2.38c0.4-0.05,0.79-0.1,1.19-0.14C675.39,789.34,675.03,788.1,675.91,787.37z M619.89,635.4
		c-1.53-11.39-3.05-22.78-4.58-34.17c-1.59,3.45-1.91,6.92-1.94,10.39c-0.06,7.32-0.01,14.64,0.06,21.96
		c0.26,30.61,0.6,61.22,0.73,91.84c0.02,5.26,1.25,8.98,6.9,9.54C620.67,702.39,620.29,669.85,619.89,635.4z"/>
	<path class="st11" d="M434.94,934.28c9.44-55.33,18.64-109.82,27.89-164.3c7.02-41.35,14.1-82.69,21.21-124.03
		c0.75-4.36,1.85-8.67,3.03-14.17c-7.41,117.91-14.75,234.73-22.16,352.66c-5.32-2.35-8.09-6.39-11.4-9.81
		c-8.04-8.29-13.52-18.14-17.43-28.84C434.88,942.5,435.13,938.69,434.94,934.28z"/>
	<path class="st11" d="M650.1,856.24c1.03-2.95,2.02-5.26,3.09-7.74c5.05,1.1,8.37,2.82,8.22,7.78c-0.1,3.23-4.36,6.94-7.65,6.61
		C650.22,862.54,650.21,859.57,650.1,856.24z"/>
	<path class="st11" d="M682.4,824.7c-1.23,1.84-2.2,3.13-4.32,5.92c-1.29-4.37-2.32-7.52-2.96-10.74c-0.05-0.25,2.78-1.7,4.04-1.44
		C681.98,819.01,683.94,820.74,682.4,824.7z"/>
	<path class="st11" d="M665.61,842.18c-3.99-2.58-3.38-5.87-0.42-8.08c1.43-1.07,4.39-0.11,6.66-0.07c0.16,0.69,0.33,1.39,0.49,2.08
		C670.27,838.05,668.2,839.99,665.61,842.18z"/>
</g>
<g>
	<path class="st12" d="M850.26,1417.99c-0.87-36.97-1.6-72.95-2.63-108.91c-0.92-32.3-1.73-64.61-3.44-96.87
		c-0.75-14.1,4.84-24.56,14.67-33.34c12.34-11.02,26.55-18.98,42.59-23.24c4.01-1.06,8.61-1.38,12.65-0.59
		c51.91,10.17,103.76,20.7,155.66,30.93c28.41,5.6,56.88,10.9,85.36,16.16c4.81,0.89,8.72,2.71,12.03,6.37
		c3.73,4.12,7.85,7.9,12.22,12.24c5.5-4.76,9.99-9.2,15.07-12.83c3.39-2.42,7.44-4.66,11.46-5.34
		c54.17-9.06,108.4-17.77,162.59-26.74c11.81-1.96,23.53-4.48,35.25-6.97c8.44-1.79,16.12-1.04,24.12,2.94
		c19.36,9.62,34.27,23.91,46.53,41.35c20.48,29.13,31.98,61.92,39.4,96.38c7.41,34.45,8.71,69.4,5.66,104.27
		c-3.36,38.41-12.61,75.45-33.06,108.87c-8.6,14.05-18.89,26.64-32.5,36.16c-11.08,7.75-23.1,12.97-36.92,13.71
		c-12.94,0.7-25.83,2.89-38.76,3c-23.28,0.19-46.58-0.73-69.87-1.13c-17.66-0.3-35.31-0.52-52.97-0.77
		c-47.96-0.69-95.93-0.9-143.88-2.18c-55.93-1.5-111.82-4.56-167.8-3.8c-5.32,0.07-10.69,0.13-15.95,0.82
		c-30.67,4.04-55.56-9.78-69.03-37.8c-4.45-9.25-6.49-18.48-6.54-28.77C852,1474.28,850.96,1446.64,850.26,1417.99z M931.81,1441.28
		c5.58,3.54,11,7.37,16.76,10.57c13.66,7.58,29,6.9,43.81,7.66c36.56,1.87,73.16,2.84,109.75,4.18c36.25,1.33,72.51,2.7,108.76,3.98
		c26.62,0.93,53.27,1.23,79.85,2.79c15.54,0.91,27.86-4.51,38.9-14.62c24.17-22.14,38.88-49.68,45.79-81.39
		c1.95-8.93,4.31-18.23,0.63-27.53c-0.56-1.42-0.03-3.29,0.09-4.95c1.72-24.81-5.35-47.41-17.42-68.68
		c-6.13-10.8-13.62-20.53-23.93-27.81c-5.05-3.56-10.35-5.25-16.73-5.31c-41.3-0.39-82.59-1.1-123.89-1.81
		c-35.96-0.62-71.91-1.26-107.86-2.08c-30.63-0.7-61.26-1.64-91.89-2.51c-15.97-0.45-31.95-0.92-47.92-1.45
		c-10.77-0.35-21.38,0.62-31.05,5.61c-10.2,5.26-17.42,12.37-17.29,25.45c0.31,32.33,0.65,64.7-0.72,96.98
		c-0.85,20.02,4.59,37.48,14.87,53.87C917.95,1423.22,924.61,1431.58,931.81,1441.28z"/>
	<path class="st12" d="M1070.89,1061.73c-24.21,9.92-53.17-8.24-61.86-28.39c-0.76-1.77-1.17-3.81-1.24-5.74
		c-0.51-14.31-1.21-28.62-1.24-42.93c-0.11-50.3,0.15-100.6,0.04-150.9c-0.11-46.98-0.53-93.95-0.78-140.93
		c-0.07-12.99,6.48-22.33,19.28-25.09c11.5-2.48,22.36-5.8,32.57-11.84c7.01-4.14,16.61-2.29,21.7,4.21
		c3.8,4.85,7.76,10.69,8.64,16.54c4.96,32.89,2.06,64.96-12.74,95.33c-3.16,6.49-4.28,13.36-2.08,20.36
		c3.68,11.69,3.9,23.63,2.32,35.56c-1.97,14.89-2.11,29.62-0.57,44.62c1.04,10.11-0.52,20.58-1.71,30.8
		c-1.44,12.35-1.27,24.21,2.09,36.48c9.68,35.38,11.8,71.44,6.87,107.85C1081.28,1054.23,1076.94,1058.19,1070.89,1061.73z"/>
	<path class="st12" d="M1625.97,875.51c25.19-6.25,58.26,6.18,68.14,25.63c-14.69,5.4-26.98,14.05-34.97,27.79
		c-8.16,14.03-8.98,28.8-2.46,44.91c-7.99-1.62-12.64-5.82-17.35-9.73c-14.15-11.72-24.95-25.94-29.66-43.88
		c-1.73-6.59-2.11-13.81-1.67-20.65C1608.73,888.38,1615.08,880.53,1625.97,875.51z"/>
</g>
<g>
	<path class="st13" d="M1168.45,1773.35c3.5-0.79,7.49-1.12,11.48-1.45c0.02,0.64,0.05,1.28,0.07,1.92
		C1176.31,1773.82,1172.62,1773.82,1168.45,1773.35z"/>
</g>
<g>
	<path class="st14" d="M1640.91,229.54c8.89-0.84,17.77-1.67,26.76-2.52c-0.74-5.05-1.41-9.6-2.32-15.82
		c3.5,1.41,5.33,1.81,6.77,2.79c6.11,4.18,8.58,4.78,14.11,0.05c4.71-4.03,8.98-8.96,12.2-14.25c6.36-10.41,9.59-22.03,8.89-34.3
		c-0.34-5.89-1.02-12.71-7.51-15.27c-7.04-2.77-12.44,1.92-16.33,6.87c-4.67,5.95-8.23,12.79-12.08,19.36
		c-1.33,2.27-1.65,5.21-3.21,7.25c-1.14,1.49-3.55,2.02-5.4,2.97c-0.64-1.7-2.05-3.54-1.79-5.09c3.03-18.39,9.23-35.43,22.59-49.06
		c2.53-2.58,5.52-4.89,8.68-6.62c9.64-5.3,19.27-2.75,25.13,6.54c4.58,7.25,6.27,15.47,6.27,23.86
		c0.01,24.42-6.51,46.66-22.94,65.37c-0.8,0.92-1.52,1.91-3.03,3.82c16.93,0.82,32.71,1.58,48.55,2.35c1.9-2.63,3.87-5.36,6.22-8.61
		c1.72,1.85,2.74,2.69,3.43,3.74c5.03,7.74,9.19,8.23,15.24,1.36c5.8-6.59,8.25-14.42,7.02-23.16c-1.09-7.7-6.66-10.37-12.81-5.64
		c-3.54,2.73-6.02,6.93-8.7,10.67c-1.65,2.29-2.8,4.95-5.93,7.02c-0.26-1.73-1-3.54-0.7-5.17c1.95-10.77,6.34-20.36,14.9-27.51
		c11.46-9.56,23.84-5.92,29.29,7.96c4.93,12.57,2.95,24.49-2.02,36.36c-1.24,2.95-2.61,5.85-4.19,9.37
		c6.45,2.04,12.43,3.64,18.18,5.84c4.57,1.75,9.13,3.81,13.22,6.46c7.49,4.87,7.93,6.73,5.95,15.45c-0.35,1.53-0.28,3.15-0.45,5.23
		c-18.64-5.74-37.24-8.98-56.2-9.5c-27.29-0.75-54.59-1.37-81.88-1.38c-14.3-0.01-28.75,0.37-42.85,2.45
		c-18.02,2.65-36.65,2.71-53.74,10.17c-3.83,1.67-4.49-0.74-5.92-2.77c6.63-11.4,6.77-12.28,3.96-27.37
		c16.86,0.34,22.36-10.45,24.01-24.88c0.07-0.6,0.77-1.13,0.83-1.73c1.36-11.71,4.41-23.54,3.6-35.1
		c-1.51-21.62-5.07-43.18-15.23-62.81c-3.76-7.27-8.26-14.39-18.3-14.39c-3.44,0-5.53,1.05-7.37,3.82
		c-5.59,8.41-8.52,17.77-9.81,27.62c-0.99,7.57-1.52,15.22-1.89,22.86c-0.2,4.17-1.04,7.53-5.96,7.24
		c-4.31-0.25-3.67-3.89-3.71-6.76c-0.18-11.64-1.77-23.5-0.06-34.86c2.06-13.68,6.24-27.37,15.85-38.13
		c7.06-7.9,17.48-9.73,27.02-6.85c11.48,3.46,19.29,11.46,25.82,20.92c12.16,17.6,18.83,37.41,22.21,58.31
		c3.93,24.33,3.58,48.45-6.27,72.86C1639.3,228.52,1640.1,229.03,1640.91,229.54z"/>
	<path class="st14" d="M502.51,517.42c-13.65-16.83-20.86-36.1-23.89-56.22c-2.7-17.94-1.75-36.44-2.28-54.7
		c-0.48-16.46,3.94-31.96,10.23-46.91c2.5-5.94,6.02-11.61,9.87-16.81c12.62-17.07,33.36-13.46,44.85-2.3
		c9.77,9.49,15.76,21.39,20.16,33.79c11.06,31.16,13.73,63.29,8.29,95.98c-0.58,3.49-1.22,7.44-7.02,7.26c0-2.71-0.3-5.25,0.05-7.69
		c1.3-9,0.52-17.69-1.77-26.56c-2.33-9.02-2.67-18.54-4.81-27.63c-2.89-12.24-6.09-24.5-13.42-35.09c-1.1-1.59-2.33-3.17-3.79-4.43
		c-4.16-3.61-9.22-3.43-11.61,1.43c-3.15,6.4-6.24,13.3-7.11,20.27c-4.13,32.94-1.92,65.54,7.83,97.42c1.13,3.7,3,7.17,4.83,11.46
		c3.58-0.9,6.77-1.36,9.69-2.51c14.79-5.79,30.37-7.75,45.9-10.32c33.07-5.48,66.29-5.32,99.54-3.52
		c17.52,0.95,34.78,3.93,51.55,9.49c9.19,3.04,16.82,6.92,19.88,17.29c1.21,4.11,5.31,7.36,8.38,11.39
		c-2.27,3.59-5.46,3.86-9.23,2.63c-26.25-8.54-53.43-10.13-80.75-11.59c-31.35-1.67-62.64-1.03-93.89,1.03
		c-13.84,0.91-27.59,3.41-41.36,5.27c-1.95,0.26-4.12,0.58-5.7,1.62c-12.7,8.29-22.14,1.96-31.12-6.68
		C504.84,519.87,503.93,518.89,502.51,517.42z"/>
	<path class="st14" d="M429.8,517.81c-2.81,6.03-8.69,6.76-13.02,9.5c-1.57,0.99-4.88-0.34-7.24-1.1
		c-10.28-3.34-15.12-11.71-19.13-20.9c-6.02-13.79-5.83-28.37-6.32-43c-0.48-14.4,2.98-27.51,9.25-40.25
		c3.66-7.43,9.12-11.87,17.29-12.79c8.28-0.93,14.01,3.6,18.32,9.81c5.69,8.2,8.72,17.63,10.86,27.31c0.71,3.19,1.52,6.42,1.64,9.66
		c0.11,3.03-0.65,6.09-1.03,9.13c-0.76,0.06-1.51,0.11-2.27,0.17c-0.64-1.92-1.59-3.8-1.86-5.77c-1.17-8.67-3.96-16.29-11.31-21.9
		c-4.03-3.08-7.43-2.91-10.34,0.68c-2.45,3.03-5.1,6.48-5.92,10.14c-3.17,14.1-3.39,28,2.86,41.75
		c4.62,10.18,13.18,11.95,19.46,0.87c0.62-1.1,1.47-2.08,2.11-2.97c5.8-0.07,7.74,3,6.51,7.68
		C437.68,503.4,435.94,511.22,429.8,517.81z"/>
	<path class="st14" d="M332.11,445.91c13.43,7.26,19.6,18.33,19.94,33.06c-2.34-3.36-4.61-6.77-7.03-10.07
		c-1.74-2.37-3.39-4.95-5.61-6.78c-5.64-4.65-11.88-2.6-13.36,4.61c-3.33,16.21-1.05,31.63,7.91,45.77c2.18,3.44,5.06,6.92,9.54,5.8
		c4.51-1.13,6.44-4.99,7.06-9.67c0.6-4.6,1-9.55,6.62-13.02c3.03,12.66,1.67,23.52-5.48,33.59c-4.42,6.24-16.99,6.68-23.76-0.5
		c-7.85-8.33-11.94-18.7-15.28-29.26c-2.22-7.01-4.43-14.58-3.97-21.73c0.59-9.16,0.93-19,6.58-27.03
		C319.15,445.15,325.26,444.89,332.11,445.91z"/>
</g>
</svg>
